<svg width="95" height="100" viewBox="0 0 95 100" version="1.1" xmlns="http://www.w3.org/2000/svg" xmlns:xlink="http://www.w3.org/1999/xlink">
<title>physics</title>
<desc>Created using Figma</desc>
<g id="Canvas" transform="translate(-11308 -1307)">
<g id="physics">
<g id="Shape">
<use xlink:href="#path0_fill" transform="translate(11308.2 1307)" fill="#F4511E"/>
</g>
<g id="Shape">
<use xlink:href="#path1_fill" transform="translate(11347.9 1346.91)" fill="#F4511E"/>
</g>
</g>
</g>
<defs>
<path id="path0_fill" fill-rule="evenodd" d="M 88.1963 49.7722C 94.7754 40.3591 96.4219 31.3484 92.6885 24.8871C 91.7139 23.2006 90.4043 21.7334 88.7861 20.5081C 88.8154 20.3228 88.8369 20.1353 88.8516 19.9457C 88.8584 19.8568 88.8643 19.7675 88.8682 19.6776C 88.8711 19.588 88.8721 19.498 88.8721 19.4076C 88.8721 15.515 85.7031 12.3483 81.8066 12.3483C 79.0566 12.3483 76.6709 13.9274 75.5039 16.2249C 73.4121 16.0967 71.1934 16.1316 68.874 16.3328C 64.0039 5.93188 57.0176 0 49.5518 0C 42.0859 0 35.0996 5.93201 30.2295 16.3334C 18.7803 15.344 10.1475 18.4236 6.41406 24.8877C 5.45996 26.5408 4.84766 28.3685 4.58496 30.3372C 1.90918 31.3428 0 33.9254 0 36.9465C 0 40.8392 3.16895 44.0059 7.06543 44.0059L 7.22754 44.0038L 7.45312 43.9948C 8.39551 45.8971 9.5498 47.8304 10.9062 49.7725C 4.32715 59.1848 2.67969 68.1956 6.41406 74.6575C 9.68945 80.3268 16.7324 83.3942 26.1416 83.3938C 26.7998 83.3938 27.4697 83.3785 28.1504 83.348C 28.832 83.3175 29.5254 83.2719 30.2295 83.2112C 35.0996 93.6116 42.0859 99.543 49.5518 99.543C 51.4668 99.543 53.3613 99.1566 55.2031 98.3958C 56.4238 99.3977 57.9834 100 59.6826 100C 63.5781 100 66.748 96.8333 66.748 92.9407C 66.748 91.5183 66.3232 90.194 65.5967 89.0846C 66.7744 87.3167 67.873 85.3523 68.874 83.2112C 70.2803 83.3326 71.6445 83.3938 72.9619 83.3938C 82.3701 83.3938 89.4141 80.3264 92.6885 74.6576C 96.4229 68.1956 94.7764 59.1848 88.1963 49.7722ZM 81.8076 16.5146C 83.4033 16.5146 84.7021 17.8123 84.7021 19.4075C 84.7021 21.0023 83.4033 22.3002 81.8076 22.3002C 80.2109 22.3002 78.9121 21.0026 78.9121 19.4075C 78.9121 17.8125 80.2109 16.5146 81.8076 16.5146ZM 81.8066 26.467C 78.2334 26.467 75.2734 23.8021 74.8076 20.3574C 73.458 20.292 72.0449 20.303 70.5791 20.3876C 72.2988 24.9424 73.5879 29.9847 74.4238 35.4268C 78.7227 38.8704 82.4492 42.5071 85.5371 46.2721C 90.5322 38.6813 91.833 31.7405 89.0771 26.9707C 88.7246 26.36 88.3057 25.7878 87.8252 25.2556C 87.5303 24.9294 87.2119 24.6182 86.8721 24.3223C 85.5869 25.6438 83.792 26.467 81.8066 26.467ZM 75.1475 41.5002C 78.1289 44.1711 80.7871 46.9692 83.002 49.7725C 80.7871 52.5758 78.1289 55.3739 75.1475 58.0448C 75.3809 55.3203 75.5 52.5542 75.5 49.7725C 75.5 46.9908 75.3809 44.2245 75.1475 41.5002ZM 62.5244 27.3184C 64.9395 28.7112 67.2783 30.1982 69.5205 31.761C 68.6963 27.8463 67.5996 24.1469 66.2773 20.8287C 62.7402 21.343 58.9854 22.2434 55.1787 23.4872C 57.6533 24.6465 60.1104 25.9264 62.5244 27.3184ZM 49.5518 4.16663C 55.0635 4.16663 60.4277 8.76453 64.5107 16.8844C 59.7051 17.6731 54.6895 19.0775 49.5518 21.0751C 44.416 19.0778 39.4004 17.6729 34.5928 16.8844C 38.6748 8.76453 44.04 4.16663 49.5518 4.16663ZM 43.9238 23.4866C 40.1182 22.2434 36.3643 21.343 32.8262 20.8287C 31.5039 24.1455 30.4072 27.8446 29.583 31.7604C 31.8252 30.1979 34.1631 28.7112 36.5762 27.3186C 38.9854 25.9283 41.4434 24.6483 43.9238 23.4866ZM 7.06543 39.8392C 5.46875 39.8392 4.16992 38.5416 4.16992 36.9465C 4.16992 35.3516 5.46875 34.0537 7.06543 34.0537C 8.66113 34.0537 9.95996 35.3516 9.95996 36.9465C 9.95996 38.5414 8.66113 39.8392 7.06543 39.8392ZM 10.0254 26.9703C 9.47168 27.9307 9.08008 28.9841 8.84961 30.1158C 11.8848 30.9078 14.1309 33.6697 14.1299 36.9469C 14.1299 39.2164 13.0518 41.2377 11.3809 42.53C 12.0098 43.7599 12.7402 45.0089 13.5684 46.2687C 16.6592 42.5001 20.3838 38.8636 24.6787 35.4244C 25.5156 29.9799 26.8057 24.9375 28.5244 20.3845C 19.4473 19.8546 12.7812 22.1984 10.0254 26.9703ZM 23.9561 58.0447C 20.9746 55.3734 18.3164 52.5752 16.1016 49.7722C 18.3184 46.9658 20.9766 44.1667 23.9561 41.4974C 23.7227 44.2224 23.6035 46.9896 23.6035 49.7722C 23.6035 52.5538 23.7227 55.3203 23.9561 58.0447ZM 13.5654 53.2727C 8.57031 60.8629 7.26855 67.8037 10.0254 72.5745C 12.7812 77.3447 19.4473 79.6877 28.5244 79.1582C 26.8047 74.6045 25.5146 69.562 24.6787 64.1182C 20.3789 60.6744 16.6533 57.0377 13.5654 53.2727ZM 29.583 67.7838C 31.8252 69.3467 34.1631 70.833 36.5771 72.2246C 38.9922 73.6168 41.4492 74.8967 43.9238 76.0557C 40.1182 77.2994 36.3643 78.1998 32.8262 78.7142C 31.5039 75.3973 30.4072 71.6989 29.583 67.7838ZM 56.7881 92.9407C 56.7881 94.5358 58.0869 95.8334 59.6836 95.8334C 61.2793 95.8334 62.5781 94.5358 62.5781 92.9407C 62.5781 91.3455 61.2793 90.0479 59.6836 90.0479C 58.0869 90.0479 56.7881 91.3457 56.7881 92.9407ZM 62.3662 86.4117C 61.5381 86.0707 60.6328 85.8811 59.6826 85.8811C 55.7871 85.8811 52.6172 89.0479 52.6172 92.9404C 52.6172 93.069 52.6211 93.1968 52.6279 93.3236C 52.6367 93.4817 52.6504 93.6384 52.6689 93.7936C 52.7119 94.1438 52.7812 94.4862 52.874 94.819C 51.7754 95.1875 50.6641 95.376 49.5518 95.376C 44.04 95.3762 38.6748 90.7783 34.5928 82.6586C 39.4004 81.8698 44.415 80.4648 49.5508 78.4674C 54.6875 80.4647 59.7021 81.8691 64.5078 82.6581C 63.832 83.9999 63.1172 85.2543 62.3662 86.4117ZM 55.1787 76.0555C 58.9854 77.2994 62.7402 78.2002 66.2773 78.7141C 67.5996 75.3971 68.6963 71.6985 69.5205 67.7828C 67.2734 69.3486 64.9346 70.8356 62.5244 72.2246C 60.1104 73.6166 57.6533 74.8964 55.1787 76.0555ZM 60.4404 68.6157C 56.876 70.6711 53.2168 72.4709 49.5527 73.9785C 45.8877 72.4716 42.2275 70.6721 38.6611 68.6157C 35.0986 66.5618 31.7109 64.2949 28.5703 61.8739C 28.0439 57.9413 27.7734 53.8759 27.7734 49.7725C 27.7734 45.668 28.0439 41.6018 28.5703 37.6692C 31.7109 35.2499 35.0996 32.9824 38.6621 30.9268C 42.2139 28.8768 45.874 27.0774 49.5518 25.5647C 53.2158 27.0723 56.875 28.8716 60.4395 30.927C 64.0049 32.983 67.3936 35.2506 70.5322 37.6711C 71.0596 41.6035 71.3301 45.6689 71.3301 49.7725C 71.3301 53.876 71.0596 57.9414 70.5322 61.8737C 67.3838 64.3007 63.9941 66.5676 60.4404 68.6157ZM 70.5791 79.1586C 79.6553 79.6879 86.3223 77.3447 89.0781 72.5746C 91.835 67.8035 90.5332 60.8629 85.5381 53.2728C 82.4502 57.0377 78.7236 60.6746 74.4248 64.1185C 73.5889 69.5625 72.2988 74.6049 70.5791 79.1586Z"/>
<path id="path1_fill" fill-rule="evenodd" d="M 0 9.8584C 0 4.42249 4.42578 0 9.86621 0C 15.3066 0 19.7334 4.42249 19.7334 9.8584C 19.7334 15.2943 15.3066 19.7168 9.86621 19.7168C 4.42578 19.7168 0 15.2943 0 9.8584ZM 4.16992 9.85815C 4.16992 12.9967 6.72559 15.5499 9.86621 15.5499C 13.0078 15.5499 15.5625 12.9967 15.5625 9.85815C 15.5625 6.71973 13.0078 4.16638 9.86621 4.16638C 6.72559 4.16638 4.16992 6.71973 4.16992 9.85815Z"/>
</defs>
</svg>
