<?xml version="1.0" encoding="UTF-8"?>
<svg width="104px" height="100px" viewBox="0 0 104 100" version="1.1" xmlns="http://www.w3.org/2000/svg" xmlns:xlink="http://www.w3.org/1999/xlink">
    <!-- Generator: Sketch 48.2 (47327) - http://www.bohemiancoding.com/sketch -->
    <title>library</title>
    <desc>Created with Sketch.</desc>
    <defs></defs>
    <g id="Курсовая-работа" stroke="none" stroke-width="1" fill="none" fill-rule="evenodd" transform="translate(-1714.000000, -1855.000000)">
        <g id="Group-35-Copy" transform="translate(-94.000000, 1825.000000)" fill="#F4511E" fill-rule="nonzero">
            <g id="Group-35" transform="translate(1808.000000, 30.000000)">
                <g id="library">
                    <path d="M18.7364531,30.272561 L12.0343438,30.272561 C9.89523438,30.272561 8.15485938,32.0140244 8.15485938,34.1544715 L8.15485938,68.4735772 C8.15485938,70.6140244 9.89523438,72.3554878 12.0343438,72.3554878 L18.7364531,72.3554878 C20.8755625,72.3554878 22.6159375,70.6140244 22.6159375,68.4735772 L22.6159375,34.1544715 C22.6159375,32.0136179 20.8757656,30.272561 18.7364531,30.272561 Z M17.4433594,67.1796748 L13.3274375,67.1796748 L13.3274375,35.448374 L17.4433594,35.448374 L17.4433594,67.1796748 Z" id="Shape"></path>
                    <path d="M44.3350781,30.272561 L37.6329688,30.272561 C35.4938594,30.272561 33.7534844,32.0140244 33.7534844,34.1544715 L33.7534844,68.4735772 C33.7534844,70.6140244 35.4938594,72.3554878 37.6329688,72.3554878 L44.3350781,72.3554878 C46.4741875,72.3554878 48.2145625,70.6140244 48.2145625,68.4735772 L48.2145625,34.1544715 C48.2145625,32.0136179 46.4741875,30.272561 44.3350781,30.272561 Z M43.0419844,67.1796748 L38.9260625,67.1796748 L38.9260625,35.448374 L43.0419844,35.448374 L43.0419844,67.1796748 Z" id="Shape"></path>
                    <path d="M89.4556406,64.2674797 L80.5786719,31.1172764 C80.0249531,29.0497967 77.8931563,27.8189024 75.827375,28.3727642 L69.353375,30.1085366 C67.2873906,30.6628049 66.0568594,32.7955285 66.6105781,34.8628049 L75.4873438,68.0130081 C75.7554688,69.0144309 76.39775,69.8514228 77.2949531,70.3699187 C77.89275,70.7152439 78.5563594,70.8916667 79.2285,70.8916667 C79.5654844,70.8916667 79.9045,70.8473577 80.2386406,70.7575203 L86.7124375,69.021748 C88.778625,68.4676829 90.0091563,66.3349593 89.4556406,64.2674797 Z M80.1486563,65.4231707 L71.9413906,34.7729675 L75.9171563,33.7069106 L84.1248281,64.3569106 L80.1486563,65.4231707 Z" id="Shape"></path>
                    <path d="M103.776766,86.220122 L101.700016,78.4648374 C101.699813,78.4640244 101.699813,78.4636179 101.699813,78.4630081 C101.699609,78.4623984 101.699203,78.4617886 101.699203,78.4611789 L82.0117188,4.94065041 C81.5646406,3.27134146 80.4947813,1.87621951 78.9991719,1.01219512 C77.5039688,0.148577236 75.7611563,-0.081300813 74.0928906,0.366056911 L56.8611875,4.98617886 C56.298125,5.13699187 55.7697969,5.36463415 55.2790469,5.64979675 C54.1179844,3.91544715 52.1421875,2.77073171 49.90375,2.77073171 L32.0642969,2.77073171 C30.6097188,2.77073171 29.26625,3.25406504 28.1848125,4.06829268 C27.1035781,3.25406504 25.7599063,2.77073171 24.3053281,2.77073171 L6.46567188,2.77073171 C2.900625,2.77073171 0,5.67317073 0,9.24065041 L0,93.3871951 C0,96.9546748 2.900625,99.8569106 6.46567188,99.8569106 L24.3055313,99.8569106 C25.7601094,99.8569106 27.1035781,99.3735772 28.1850156,98.5593496 C29.26625,99.3735772 30.6099219,99.8569106 32.0645,99.8569106 L49.9039531,99.8569106 C53.4692031,99.8569106 56.369625,96.9544715 56.369625,93.3871951 L56.369625,28.1471545 L71.9767344,86.4292683 C71.9769375,86.4302846 71.9769375,86.4310976 71.9773438,86.4321138 C71.9775469,86.4331301 71.9781563,86.4341463 71.9783594,86.4351626 L74.0547031,94.1890244 C74.501375,95.8583333 75.5712344,97.2536585 77.0670469,98.1176829 C78.0635781,98.6932927 79.1691875,98.9871951 80.289625,98.9871951 C80.8510625,98.9871951 81.4165625,98.9132114 81.9735313,98.7638211 L99.2052344,94.1436992 C100.8735,93.6965447 102.267953,92.6262195 103.131438,91.1294715 C103.994516,89.6329268 104.223641,87.8892276 103.776766,86.220122 Z M25.598625,93.3871951 C25.598625,94.1006098 25.0182969,94.6810976 24.3055313,94.6810976 L6.46567187,94.6810976 C5.75270312,94.6810976 5.17257812,94.1006098 5.17257812,93.3871951 L5.17257812,87.9443089 L25.598625,87.9443089 L25.598625,93.3871951 Z M25.598625,82.7684959 L5.17257812,82.7684959 L5.17257812,19.8593496 L25.598625,19.8593496 L25.598625,82.7684959 Z M25.598625,14.6835366 L5.17257812,14.6835366 L5.17257812,9.24065041 C5.17257812,8.52723577 5.75270312,7.94674797 6.46567187,7.94674797 L24.3055313,7.94674797 C25.0185,7.94674797 25.598625,8.52723577 25.598625,9.24065041 L25.598625,14.6835366 Z M51.1968437,93.3871951 C51.1968437,94.1006098 50.6167188,94.6810976 49.90375,94.6810976 L32.0642969,94.6810976 C31.3513281,94.6810976 30.7712031,94.1006098 30.7712031,93.3871951 L30.7712031,87.9443089 L51.1970469,87.9443089 L51.1970469,93.3871951 L51.1968437,93.3871951 Z M51.1970469,82.7684959 L30.7712031,82.7684959 L30.7712031,19.8593496 L51.1970469,19.8593496 L51.1970469,82.7684959 Z M51.1970469,14.6835366 L30.7712031,14.6835366 L30.7712031,9.24065041 C30.7712031,8.52723577 31.3513281,7.94674797 32.0642969,7.94674797 L49.90375,7.94674797 C50.6167187,7.94674797 51.1968437,8.52723577 51.1968437,9.24065041 L51.1970469,14.6835366 Z M57.2855156,11.570122 C57.1646563,11.1199187 57.3145625,10.7615854 57.4145,10.5882114 C57.5144375,10.4148374 57.7496563,10.1063008 58.1997813,9.98556911 L75.4316875,5.36544715 C75.5434063,5.33536585 75.6553281,5.32113821 75.7658281,5.32113821 C76.3368125,5.32113821 76.8606719,5.70304878 77.01525,6.28028455 L78.4233125,11.5378049 L58.6935781,16.8278455 L57.2855156,11.570122 Z M76.3039062,82.5926829 L60.0321719,21.8272358 L79.7621094,16.5371951 L96.0338438,77.3028455 L76.3039062,82.5926829 Z M98.6513125,88.5418699 C98.5511719,88.7152439 98.3161562,89.0237805 97.8660312,89.1445122 L80.634125,93.7646341 C80.1837969,93.8851626 79.8260937,93.7353659 79.6528281,93.6355691 C79.4795625,93.5353659 79.1712187,93.3002033 79.0505625,92.8497967 L77.6425,87.5922764 L97.3724375,82.3022358 L98.7805,87.5597561 C98.9011562,88.0101626 98.7514531,88.3684959 98.6513125,88.5418699 Z" id="Shape"></path>
                </g>
            </g>
        </g>
    </g>
</svg>