<svg width="73" height="100" viewBox="0 0 73 100" version="1.1" xmlns="http://www.w3.org/2000/svg" xmlns:xlink="http://www.w3.org/1999/xlink">
<title>Group 13</title>
<desc>Created using Figma</desc>
<g id="Canvas" transform="translate(-12968 -332)">
<g id="Group 13">
<g id="Shape">
<use xlink:href="#path0_fill" transform="translate(12968 332)" fill="#F4511E"/>
</g>
<g id="Shape">
<use xlink:href="#path1_fill" transform="translate(13000 352)" fill="#F4511E"/>
</g>
<g id="Shape">
<use xlink:href="#path2_fill" transform="translate(13022 359)" fill="#F4511E"/>
</g>
<g id="Shape">
<use xlink:href="#path3_fill" transform="translate(13003 385)" fill="#F4511E"/>
</g>
<g id="Shape">
<use xlink:href="#path4_fill" transform="translate(13003 392)" fill="#F4511E"/>
</g>
<g id="Shape">
<use xlink:href="#path5_fill" transform="translate(12980 382)" fill="#F4511E"/>
</g>
<g id="Shape">
<use xlink:href="#path6_fill" transform="translate(13003 405)" fill="#F4511E"/>
</g>
<g id="Shape">
<use xlink:href="#path7_fill" transform="translate(13003 412)" fill="#F4511E"/>
</g>
<g id="Shape">
<use xlink:href="#path8_fill" transform="translate(12980 402)" fill="#F4511E"/>
</g>
<g id="Shape">
<use xlink:href="#path9_fill" transform="translate(12980 349)" fill="#F4511E"/>
</g>
<g id="Shape">
<use xlink:href="#path10_fill" transform="translate(12980 355)" fill="#F4511E"/>
</g>
</g>
</g>
<defs>
<path id="path0_fill" fill-rule="evenodd" d="M 72.543 17.16L 55.9053 0.458405C 55.6123 0.164856 55.2158 0 54.8018 0L 4.8877 0C 2.19238 0 0 2.20078 0 4.90607L 0 95.0939C 0 97.7992 2.19238 100 4.8877 100L 68.1123 100C 70.8076 100 73 97.7992 73 95.0939L 73 18.2672C 73 17.8517 72.8359 17.4537 72.543 17.16ZM 56.3613 5.3457L 67.6738 16.7014L 58.1289 16.7014C 57.1543 16.7014 56.3613 15.9053 56.3613 14.9268L 56.3613 5.3457ZM 68.1123 96.8685C 69.0869 96.8685 69.8799 96.0724 69.8799 95.0939L 69.8799 19.833L 58.1289 19.833C 55.4346 19.833 53.2422 17.6322 53.2422 14.9269L 53.2422 3.13144L 4.88672 3.13144C 3.91211 3.13144 3.11914 3.92752 3.11914 4.90604L 3.11914 95.0939C 3.11914 96.0724 3.91211 96.8685 4.88672 96.8685L 68.1123 96.8685Z"/>
<path id="path1_fill" fill-rule="evenodd" d="M 15.3994 3.06909L 19.9443 19.9764C 20.1738 20.8298 19.6777 21.7106 18.8359 21.9432C 18.6973 21.9816 18.5566 22 18.4199 22C 17.7256 22 17.0889 21.5316 16.8975 20.819L 15.8369 16.8733L 4.16309 16.8733L 3.10254 20.819C 2.87305 21.6727 2.00488 22.1758 1.16406 21.9432C 0.322266 21.7104 -0.173828 20.8298 0.0556641 19.9764L 4.60059 3.06909C 5.08691 1.26208 6.71484 0 8.56152 0L 11.4385 0C 13.2852 0 14.9131 1.26208 15.3994 3.06909ZM 7.64746 3.91214L 5.02441 13.6697L 14.9756 13.6697L 12.3525 3.91214C 12.2402 3.49533 11.8643 3.20398 11.4385 3.20398L 8.56055 3.20398C 8.13477 3.20398 7.75879 3.49533 7.64746 3.91214Z"/>
<path id="path2_fill" d="M 8.40426 3.40426L 6.59574 3.40426L 6.59574 1.59574C 6.59574 0.71457 5.88137 0 5 0C 4.11883 0 3.40426 0.714371 3.40426 1.59574L 3.40426 3.40426L 1.59574 3.40426C 0.71457 3.40426 0 4.11863 0 5C 0 5.88137 0.714371 6.59574 1.59574 6.59574L 3.40426 6.59574L 3.40426 8.40426C 3.40426 9.28543 4.11863 10 5 10C 5.88117 10 6.59574 9.28563 6.59574 8.40426L 6.59574 6.59574L 8.40426 6.59574C 9.28543 6.59574 10 5.88137 10 5C 10 4.11863 9.28563 3.40426 8.40426 3.40426Z"/>
<path id="path3_fill" d="M 25.4055 0L 1.59454 0C 0.714033 0 0 0.671511 0 1.5C 0 2.32849 0.713834 3 1.59454 3L 25.4055 3C 26.286 3 27 2.32849 27 1.5C 27 0.671511 26.286 0 25.4055 0Z"/>
<path id="path4_fill" d="M 14.481 0L 1.51904 0C 0.680222 0 0 0.671511 0 1.5C 0 2.32849 0.680033 3 1.51904 3L 14.481 3C 15.3198 3 16 2.32849 16 1.5C 16 0.671511 15.32 0 14.481 0Z"/>
<path id="path5_fill" d="M 17.4582 0.381608C 16.8073 -0.18802 15.828 -0.111134 15.2702 0.553365L 6.59792 10.8845L 2.7931 5.70432C 2.27901 5.00444 1.30656 4.86233 0.620777 5.38749C -0.0648139 5.91245 -0.20379 6.90564 0.3105 7.60572L 5.2759 14.3663C 5.55831 14.7508 5.99633 14.9836 6.46688 14.9992C 6.48391 14.9996 6.50056 15 6.51759 15C 6.96975 15 7.40042 14.7984 7.6956 14.4468L 17.6266 2.61584C 18.184 1.95134 18.1088 0.951037 17.4582 0.381608Z"/>
<path id="path6_fill" d="M 25.4055 0L 1.59454 0C 0.714033 0 0 0.671511 0 1.5C 0 2.3283 0.713834 3 1.59454 3L 25.4055 3C 26.286 3 27 2.32849 27 1.5C 27 0.671511 26.286 0 25.4055 0Z"/>
<path id="path7_fill" d="M 14.481 0L 1.51904 0C 0.680222 0 0 0.671511 0 1.5C 0 2.3283 0.680033 3 1.51904 3L 14.481 3C 15.3198 3 16 2.32849 16 1.5C 16 0.671511 15.32 0 14.481 0Z"/>
<path id="path8_fill" d="M 17.4582 0.381608C 16.8073 -0.18802 15.828 -0.111134 15.2702 0.553365L 6.59792 10.8845L 2.7931 5.70432C 2.27901 5.00444 1.30656 4.86233 0.620777 5.38749C -0.0648139 5.91245 -0.20379 6.90564 0.3105 7.60572L 5.2759 14.3663C 5.55831 14.7508 5.99633 14.9836 6.46688 14.9992C 6.48391 14.9996 6.50056 15 6.51759 15C 6.96975 15 7.40042 14.7984 7.6956 14.4468L 17.6266 2.61584C 18.184 1.95134 18.1088 0.95084 17.4582 0.381608Z"/>
<path id="path9_fill" d="M 18.421 0L 1.579 0C 0.707076 0 0 0.671511 0 1.5C 0 2.32849 0.706879 3 1.579 3L 18.421 3C 19.2929 3 20 2.32849 20 1.5C 20 0.671511 19.2931 0 18.421 0Z"/>
<path id="path10_fill" d="M 11.4523 0L 1.54766 0C 0.69304 0 0 0.671511 0 1.5C 0 2.32849 0.692847 3 1.54766 3L 11.4523 3C 12.307 3 13 2.32849 13 1.5C 13 0.671511 12.307 0 11.4523 0Z"/>
</defs>
</svg>
