<svg width="100" height="100" viewBox="0 0 100 100" version="1.1" xmlns="http://www.w3.org/2000/svg" xmlns:xlink="http://www.w3.org/1999/xlink">
<title>dna</title>
<desc>Created using Figma</desc>
<g id="Canvas" transform="translate(-10624 -1307)">
<g id="dna">
<g id="Shape">
<use xlink:href="#path0_fill" transform="translate(10686.1 1315.08)" fill="#F4511E"/>
</g>
<g id="Shape">
<use xlink:href="#path1_fill" transform="translate(10681.3 1322.53)" fill="#F4511E"/>
</g>
<g id="Shape">
<use xlink:href="#path2_fill" transform="translate(10678.1 1331.59)" fill="#F4511E"/>
</g>
<g id="Shape">
<use xlink:href="#path3_fill" transform="translate(10677.2 1343)" fill="#F4511E"/>
</g>
<g id="Shape">
<use xlink:href="#path4_fill" transform="translate(10631.9 1369.2)" fill="#F4511E"/>
</g>
<g id="Shape">
<use xlink:href="#path5_fill" transform="translate(10639.3 1364.3)" fill="#F4511E"/>
</g>
<g id="Shape">
<use xlink:href="#path6_fill" transform="translate(10648.4 1361.19)" fill="#F4511E"/>
</g>
<g id="Shape">
<use xlink:href="#path7_fill" transform="translate(10659.9 1360.34)" fill="#F4511E"/>
</g>
<g id="Shape">
<use xlink:href="#path8_fill" transform="translate(10624 1307.19)" fill="#F4511E"/>
</g>
</g>
</g>
<defs>
<path id="path0_fill" d="M 29.3613 26.3634L 3.55659 0.608991C 2.74272 -0.203095 1.42397 -0.2029 0.610107 0.608991C -0.203369 1.42088 -0.203369 2.73745 0.610107 3.54954L 26.4152 29.3041C 26.822 29.7102 27.3552 29.9131 27.8882 29.9131C 28.4212 29.9131 28.9544 29.71 29.3613 29.3041C 30.1748 28.492 30.1748 27.1753 29.3613 26.3634Z"/>
<path id="path1_fill" d="M 26.8146 23.8215L 3.55659 0.608845C 2.74312 -0.202851 1.42397 -0.203046 0.610107 0.608845C -0.203369 1.42074 -0.203369 2.73731 0.610107 3.54959L 23.8683 26.7625C 24.2753 27.1685 24.8083 27.3714 25.3416 27.3714C 25.8748 27.3714 26.408 27.1683 26.8146 26.7625C 27.6281 25.9504 27.6281 24.6338 26.8146 23.8215Z"/>
<path id="path2_fill" d="M 20.8408 17.8594L 3.55659 0.608918C 2.74292 -0.202973 1.42417 -0.202973 0.610107 0.608918C -0.203369 1.42081 -0.203369 2.73738 0.610107 3.54946L 17.8943 20.8C 18.3013 21.206 18.8345 21.4091 19.3675 21.4091C 19.9009 21.4091 20.4337 21.2062 20.8406 20.8001C 21.6542 19.9881 21.6542 18.6715 20.8408 17.8594Z"/>
<path id="path3_fill" d="M 10.0847 7.12437L 3.5564 0.608772C 2.74312 -0.202924 1.42437 -0.202924 0.610107 0.608772C -0.203369 1.42066 -0.203369 2.73723 0.610107 3.54932L 7.13843 10.0649C 7.54526 10.471 8.07847 10.6739 8.61147 10.6739C 9.14468 10.6739 9.67769 10.4708 10.0845 10.0649C 10.8984 9.25283 10.8984 7.93626 10.0847 7.12437Z"/>
<path id="path4_fill" d="M 29.3617 26.3639L 3.55659 0.608772C 2.74312 -0.202924 1.42417 -0.202924 0.610107 0.608772C -0.203369 1.42066 -0.203369 2.73723 0.610107 3.54932L 26.4152 29.3045C 26.822 29.7105 27.3552 29.9135 27.8882 29.9135C 28.4216 29.9135 28.9546 29.7103 29.3613 29.3045C 30.1749 28.4926 30.1753 27.176 29.3617 26.3639Z"/>
<path id="path5_fill" d="M 26.9015 23.9085L 3.55659 0.608845C 2.74312 -0.203046 1.42397 -0.202851 0.610107 0.608845C -0.203369 1.42074 -0.203369 2.73731 0.610107 3.54959L 23.9554 26.8494C 24.3621 27.2554 24.8955 27.4584 25.4285 27.4584C 25.9615 27.4584 26.4949 27.2552 26.9015 26.8494C 27.7152 26.0373 27.7152 24.7205 26.9015 23.9085Z"/>
<path id="path6_fill" d="M 20.8403 17.8591L 3.55647 0.608845C 2.74299 -0.203046 1.42385 -0.202851 0.610181 0.608845C -0.203296 1.42074 -0.203491 2.73731 0.610181 3.54959L 17.894 20.7999C 18.3008 21.2059 18.834 21.4088 19.367 21.4088C 19.9 21.4088 20.4334 21.2057 20.8401 20.7999C 21.6539 19.988 21.6539 18.6712 20.8403 17.8591Z"/>
<path id="path7_fill" d="M 10.0849 7.12471L 3.5564 0.608918C 2.74292 -0.202973 1.42378 -0.202973 0.610107 0.608918C -0.203369 1.42081 -0.203369 2.73738 0.610107 3.54966L 7.13862 10.0654C 7.54526 10.4715 8.07866 10.6744 8.61167 10.6744C 9.14468 10.6744 9.67808 10.4715 10.0847 10.0654C 10.8984 9.25356 10.8984 7.93699 10.0849 7.12471Z"/>
<path id="path8_fill" d="M 99.3898 35.8313C 98.5761 35.0194 97.2574 35.0194 96.4433 35.8315C 81.5771 50.6692 67.1287 49.6136 51.8939 48.012C 50.2894 32.807 49.232 18.3873 64.0988 3.54966C 64.9123 2.73777 64.9123 1.4212 64.0988 0.608918C 63.2851 -0.202973 61.9664 -0.202973 61.1525 0.608918C 45.2179 16.5126 46.0695 32.2779 47.658 47.5651C 32.3404 45.9799 16.5449 45.1296 0.610107 61.0333C -0.203369 61.8452 -0.203369 63.1617 0.610107 63.9738C 1.01694 64.3799 1.55015 64.5828 2.08315 64.5828C 2.61636 64.5828 3.14956 64.3799 3.5562 63.9738C 18.4224 49.1362 32.8705 50.1912 48.1054 51.7931C 49.7103 66.9982 50.7675 81.4179 35.9009 96.2555C 35.0875 97.0674 35.0875 98.384 35.9009 99.1963C 36.3078 99.6023 36.841 99.8052 37.374 99.8052C 37.907 99.8052 38.4404 99.6023 38.847 99.1963C 54.7818 83.2925 53.9302 67.5272 52.3416 52.2399C 56.5085 52.6711 60.7095 53.0485 64.941 53.0483C 76.2621 53.0479 87.7906 50.3483 99.3896 38.7719C 100.203 37.9596 100.203 36.6432 99.3898 35.8313Z"/>
</defs>
</svg>
