<?xml version="1.0" encoding="UTF-8"?>
<svg width="72px" height="100px" viewBox="0 0 72 100" version="1.1" xmlns="http://www.w3.org/2000/svg" xmlns:xlink="http://www.w3.org/1999/xlink">
    <!-- Generator: Sketch 48.2 (47327) - http://www.bohemiancoding.com/sketch -->
    <title>planet-earth</title>
    <desc>Created with Sketch.</desc>
    <defs></defs>
    <g id="Курсовая-работа" stroke="none" stroke-width="1" fill="none" fill-rule="evenodd" transform="translate(-1048.000000, -1855.000000)">
        <g id="Group-35-Copy" transform="translate(-94.000000, 1825.000000)" fill="#F4511E" fill-rule="nonzero">
            <g id="Group-39" transform="translate(1142.000000, 30.000000)">
                <g id="planet-earth">
                    <path d="M71.8828013,40.5770538 C71.8828013,18.2026456 53.7476593,0 31.4567319,0 C30.2095647,0 29.1983849,1.01472842 29.1983849,2.26678154 C29.1983849,3.51860669 30.2095647,4.53356308 31.4567319,4.53356308 C34.0128454,4.53356308 36.5067256,4.80508443 38.9129338,5.31712218 L37.7223218,9.77750444 C30.2150158,8.23204411 22.5014763,9.47725791 15.8082019,13.3560692 C8.56323028,17.5545052 3.38104732,24.332964 1.21491483,32.4430401 C1.21491483,32.443496 1.2146877,32.443724 1.21446057,32.4441799 L1.21400631,32.4462317 C1.21400631,32.4464597 1.21400631,32.4466877 1.21377918,32.4466877 L1.19470032,32.5221483 C1.19447319,32.5226042 1.19447319,32.5230602 1.19447319,32.5237441 C-0.616883281,39.3765236 -0.0576908517,46.678875 2.76211987,53.159139 C2.79459937,53.3501842 2.84865615,53.5384938 2.93019558,53.7185961 C6.56335647,61.7196989 13.2713943,67.7538107 21.5093754,70.511884 L20.349653,74.8562256 C15.5949274,73.3048379 11.1786246,70.7603796 7.39714826,67.332736 C6.47159621,66.4940063 5.0438612,66.5667312 4.20757098,67.495968 C3.37173502,68.4252048 3.4444164,69.8585001 4.37019558,70.6974578 C10.1683533,75.952798 17.2906751,79.3676749 24.897918,80.6190441 C24.7725426,81.394624 24.5576782,82.1508258 24.2508265,82.8792143 C22.6956719,86.5699441 19.1111167,88.954818 15.1190915,88.954818 C13.8719243,88.954818 12.8607445,89.9697744 12.8607445,91.2215996 L12.8607445,96.9365427 C12.8607445,98.1883678 13.8719243,99.2033242 15.1190915,99.2033242 L47.8647823,99.2033242 C49.1119495,99.2033242 50.1231293,98.1885958 50.1231293,96.9365427 L50.1231293,91.2215996 C50.1231293,89.9697744 49.1119495,88.954818 47.8647823,88.954818 C43.7641893,88.954818 40.1435205,86.4810328 38.6408328,82.6526045 C38.3809968,81.9905575 38.1970221,81.3059407 38.0845931,80.6062773 C57.2331861,77.4223418 71.8828013,60.6860483 71.8828013,40.5770538 Z M37.2224101,14.4225486 C37.6083028,14.5082682 37.9962397,14.601739 38.3787256,14.7045569 C38.7603028,14.8071468 39.1430158,14.9209077 39.5207319,15.0405959 C42.4706877,16.6259523 44.4910032,21.2434112 45.0081767,27.4072423 C41.8844669,27.1617104 38.6755836,26.6040771 35.4344479,25.7325186 C32.1933123,24.8607322 29.1366057,23.7331548 26.3090726,22.3782838 C29.8277603,17.3000822 33.8777035,14.3174509 37.2224101,14.4225486 Z M53.9847823,27.1509954 C53.792858,27.1806325 53.6009338,27.2102696 53.4090095,27.2401347 C53.0344732,27.298041 52.6538044,27.3349734 52.2763155,27.3725897 C51.8556719,27.4143096 51.434347,27.4478223 51.0125678,27.4747236 C50.5244669,27.5059566 50.0359117,27.5271585 49.5469022,27.5383294 C49.3906372,24.8434059 48.8948139,22.1685444 48.0746498,19.5976407 C48.0882776,19.6083556 48.1021325,19.6192986 48.1157603,19.6304695 C50.6870915,21.6875116 52.8793438,24.220343 54.5491987,27.06368 C54.5491987,27.0766747 54.033388,27.1434722 53.9847823,27.1509954 Z M56.5522524,31.2935769 C56.5838233,31.3781566 56.6174385,31.4622803 56.6478738,31.547088 C57.0426246,32.6454842 57.3658297,33.7664502 57.6158991,34.9067943 C57.6928959,35.2597036 57.7621703,35.6146648 57.8253123,35.9705379 C58.0440379,37.2027569 58.1796341,38.4771519 58.2243785,39.7369562 C58.2904732,41.604321 58.1641893,43.4935716 57.8439369,45.3347189 L48.231142,42.7494526 C48.2463596,42.6831111 48.2590789,42.6165416 48.2740694,42.5502001 C48.5725174,41.2163031 48.8262208,39.8726029 49.0324543,38.5211516 C49.1546498,37.7202662 49.2604921,36.916873 49.348164,36.111428 C49.4038107,35.5984784 49.4524164,35.0846168 49.4935268,34.5702993 C49.5557603,33.7901598 49.6007319,33.0091085 49.6270789,32.2269173 C49.6288959,32.1767622 49.6323028,32.1256952 49.6336656,32.0755401 C49.6531987,32.035872 50.0340946,32.0582138 50.1090473,32.0582138 C50.1117729,32.0582138 50.113817,32.0582138 50.1158612,32.0582138 C52.2724543,31.9930122 54.4419937,31.7513559 56.5522524,31.2935769 Z M56.6842145,49.7157649 C55.0420694,54.279421 52.1909148,58.3294436 48.4539558,61.4016701 C47.3691861,60.4190865 46.2128707,59.5160671 45.0136278,58.6791613 C44.9652492,58.6454206 44.9166435,58.6116799 44.8680379,58.5779392 C44.6361388,58.4176709 44.4024227,58.2596824 44.1673438,58.1042017 C43.7505615,57.8283488 43.3292366,57.5595631 42.9029148,57.2987567 C42.8863344,57.2884977 42.8704353,57.2782387 42.8536278,57.2679797 C43.5695394,55.9443416 44.2232177,54.5869629 44.8217035,53.2058744 C45.2021451,52.3277046 45.5607823,51.4401877 45.8969338,50.5440076 C46.2939558,49.4850516 46.6646309,48.400106 47.0023722,47.3144766 C47.0219054,47.2520107 47.0428013,47.1904568 47.0621073,47.1277629 L56.6842145,49.7157649 Z M44.5909401,64.0455266 C44.5645931,64.0603451 44.5384732,64.0760756 44.5121262,64.0908941 C44.4417161,64.1298783 44.371306,64.1688625 44.3008959,64.2076187 C43.3190158,64.7456459 42.3035205,65.2212072 41.2628139,65.6327068 C40.8037855,65.814177 40.3397603,65.9826525 39.8714196,66.1381332 C39.1466498,66.3786496 38.4118864,66.588617 37.6694006,66.7664396 C36.9989148,66.9269358 36.3220694,67.0600748 35.6411356,67.1679082 C35.5019054,67.190022 35.3624479,67.210312 35.2229905,67.2301461 C37.05547,65.6370384 38.8354826,63.5950428 40.5037476,61.1424595 C40.5371356,61.116926 40.9720883,61.432903 41.0320505,61.4709753 C41.9791798,62.0710124 42.9015521,62.7127694 43.7880379,63.4003499 C43.8741199,63.4671474 43.9597476,63.5341728 44.0453754,63.6016542 C44.130776,63.6691355 44.2159495,63.7370729 44.3004416,63.8056941 C44.3849338,63.8743154 44.4691987,63.9433926 44.5525552,64.0131538 C44.566183,64.0225009 44.5784479,64.0350396 44.5909401,64.0455266 Z M45.112429,32.1099647 C45.0722271,33.2815418 44.985918,34.450839 44.8591798,35.6160327 C44.6799748,37.2663627 44.395836,38.8977706 44.0878486,40.5282666 C44.0283407,40.819394 43.9663344,41.1107494 43.9020568,41.4021048 C43.8893375,41.4595552 43.8763912,41.5170055 43.8636719,41.5744559 L20.2429022,35.2216314 C20.2588013,35.1705644 20.2744732,35.1194974 20.2903722,35.0686584 C20.3834953,34.7718315 20.4791167,34.4759165 20.5770095,34.1806855 C21.4655394,31.5028603 22.5562145,28.8888689 23.8771987,26.3963895 C23.8994574,26.3546696 23.9217161,26.3131776 23.9439748,26.2716857 C27.1374132,27.8369801 30.5990915,29.1252817 34.2656404,30.1112849 C37.931735,31.0972881 41.5717098,31.7192111 45.1167445,31.9661109 C45.1151546,32.0139862 45.1140189,32.0618615 45.112429,32.1099647 Z M18.2873186,17.2517509 C18.6504984,17.046799 19.0189022,16.8500543 19.3913943,16.6622008 C20.3894006,16.1588262 21.4194322,15.7167776 22.4753565,15.3431222 C23.4608707,14.9943165 24.4759117,14.6963497 25.4989022,14.4626726 C26.144858,14.3151711 26.7969464,14.1904674 27.4519874,14.0912971 C27.484694,14.0862816 27.5176278,14.082178 27.5503344,14.0773905 C25.7267129,15.692384 23.9607823,17.7512499 22.3075079,20.2124964 C22.2171104,20.1568698 22.1278486,20.1007873 22.0381325,20.0447048 C21.3165426,19.5935371 20.6074448,19.1200276 19.9192429,18.6182488 C19.6714448,18.4374626 19.4247823,18.2541685 19.1817539,18.0669989 C18.8637729,17.821923 18.5498801,17.5706916 18.2418927,17.3130769 C18.2332618,17.3057816 18.224858,17.2984863 18.2196341,17.2891393 C18.2421199,17.2763725 18.2648328,17.2642897 18.2873186,17.2517509 Z M5.08588013,35.8383108 C8.29340063,36.7009782 11.5009211,37.5636455 14.7084416,38.4263129 C13.887142,42.001002 13.4133502,45.6559393 13.2959243,49.3222755 C13.0365426,49.3302548 12.777388,49.3396018 12.5180063,49.3505448 C11.6203912,49.388617 10.7248202,49.4467513 9.83038486,49.5434138 C9.54692744,49.5739628 9.26392429,49.6079315 8.98114826,49.6457758 C8.11283281,49.7618164 7.24883281,49.908862 6.3909653,50.0864565 C4.69453628,45.5693078 4.23846057,40.5902765 5.08588013,35.8383108 Z M14.8831041,61.7272221 C13.6404795,60.7441826 12.4703091,59.6371232 11.4155205,58.4420645 C10.3014511,57.1797524 9.30458044,55.8100628 8.44512303,54.361265 C8.43649211,54.3466744 8.42808833,54.3316279 8.41945741,54.3170374 C8.424,54.3163534 8.42831546,54.3154415 8.43285804,54.3145296 C8.80171609,54.2516078 9.1780694,54.1955253 9.56032808,54.1449142 C9.99119243,54.0879198 10.4236467,54.0393606 10.8563281,53.9994645 C11.2492618,53.9632161 11.6481009,53.933579 12.0517098,53.9098693 C12.484164,53.8843358 12.9168454,53.8665536 13.3497539,53.8558386 C13.3681514,53.8553827 13.3865489,53.8546987 13.4049464,53.8542428 C13.6279874,56.8154442 14.1522019,59.4770829 14.9455647,61.7762373 C14.925123,61.7598229 14.904,61.7438645 14.8831041,61.7272221 Z M15.875205,34.0468627 L6.26354574,31.4618244 C6.26604416,31.454757 6.26808833,31.4476897 6.27081388,31.4408504 C6.28262461,31.4082496 6.29466246,31.3756488 6.30670032,31.343048 C6.53950789,30.7131458 6.79957098,30.0919068 7.07894006,29.4813827 C7.41463722,28.7475227 7.78122397,28.0280253 8.18119874,27.3272221 C8.78604416,26.2673541 9.46084543,25.2580972 10.1999243,24.2880524 C11.0775521,23.1365374 12.0669274,22.0440686 13.1248959,21.0491742 C13.5294132,20.6686796 13.9480126,20.3043713 14.37547,19.9503221 C15.0077981,20.5252817 15.6657918,21.0747077 16.3410473,21.5986003 C16.9820063,22.0958195 17.6409085,22.5709249 18.3123028,23.0259682 C18.8590032,23.3964319 19.4143344,23.7548127 19.9778423,24.0992869 C19.9705741,24.0949553 18.7084164,26.645797 18.5894006,26.9050076 C18.1251483,27.9170002 17.6917855,28.9433555 17.2884038,29.9813376 C16.7687319,31.3188824 16.2969842,32.6751213 15.875205,34.0468627 Z M17.8446435,48.6750471 C17.8973375,47.5269517 17.9884164,46.3809082 18.117653,45.2389683 C18.3322902,43.3435623 18.6518612,41.4600111 19.0752303,39.6001697 C26.9479874,41.7176259 34.8205174,43.835082 42.6932744,45.9525382 C41.7272934,49.1148159 40.4501451,52.1813429 38.887041,55.0930732 C38.8920379,55.0839541 36.2012366,53.8831959 35.9536656,53.780378 C34.9542965,53.3654587 33.943571,52.9781248 32.9228517,52.618832 C30.8816404,51.9000186 28.8015899,51.2929141 26.6947382,50.8009384 C24.5878864,50.3089627 22.4544606,49.9323437 20.3067256,49.673817 C19.7697918,49.6092994 19.2319495,49.552077 18.6934259,49.5023779 C18.4022461,49.4754765 18.1008454,49.4510829 17.8053502,49.4269173 L17.8446435,48.6750471 Z M24.5315584,66.5735705 C21.0508013,65.6377223 18.5732744,60.8045967 17.9532114,53.9953609 C21.0517098,54.2443125 24.2326562,54.799666 27.444265,55.6632452 C30.6556467,56.5270525 33.687142,57.642547 36.4944606,58.9819155 C32.5683028,64.5639477 28.0186751,67.506227 24.5383722,66.5753943 C24.5361009,66.5747104 24.5338297,66.5742544 24.5315584,66.5735705 Z M45.6064353,93.3135223 L45.6064353,94.6693052 L17.3774385,94.6693052 L17.3774385,93.3110145 C22.2518612,92.5409061 26.4448959,89.3095512 28.4104732,84.644901 C28.891306,83.503645 29.2190536,82.3172494 29.3943975,81.1000769 C30.0796467,81.1349575 30.7671672,81.1543356 31.4567319,81.1543356 C32.171735,81.1543356 32.8824227,81.1349575 33.5885678,81.0980251 C33.7471041,82.1980171 34.0303344,83.2738435 34.4384858,84.3138775 C36.3452366,89.1716247 40.5943722,92.531103 45.6064353,93.3135223 Z M31.4567319,76.6207725 C29.1799874,76.6207725 26.9275457,76.4039658 24.7246183,75.9831191 L25.8859306,71.6333059 C27.7415773,71.9704849 29.6088076,72.141696 31.4680883,72.141696 C37.9149274,72.1414681 44.258877,70.1364048 49.6429779,66.2817591 C49.802877,66.1673144 49.9879874,66.0544654 50.1274448,65.9254301 C55.7959117,61.7301858 59.8560757,55.6461469 61.7046814,48.7965591 C61.7051356,48.7949633 61.7055899,48.7935954 61.7060442,48.7919996 L61.7258044,48.7215545 C65.9681262,32.8290062 57.2338675,16.4624924 42.0718486,11.0003764 L43.2633691,6.53748641 C57.2813375,11.4499483 67.3663344,24.852753 67.3663344,40.5772818 C67.3663344,60.4516873 51.2574132,76.6207725 31.4567319,76.6207725 Z" id="Shape"></path>
                </g>
            </g>
        </g>
    </g>
</svg>