<svg xmlns="http://www.w3.org/2000/svg" width="44" height="38" viewBox="0 0 44 38">
    <path fill="#FFF" fill-rule="nonzero" d="M41.027.807L1.007 16.32c-1.297.503-1.219 2.353.116 2.745l10.17 2.987 3.795 11.98c.396 1.252 1.99 1.631 2.913.694l5.258-5.34 10.317 7.532c1.262.922 3.06.237 3.38-1.288L43.79 3.134c.334-1.591-1.24-2.918-2.763-2.327zm-5.018 7.212L17.42 24.37a.992.992 0 0 0-.33.634l-.716 6.329c-.023.206-.313.233-.375.035l-2.945-9.439a.991.991 0 0 1 .428-1.138L35.433 7.248c.504-.312 1.021.38.576.77z"/>
</svg>
