<svg xmlns="http://www.w3.org/2000/svg" width="45" height="45" viewBox="0 0 45 45">
    <g fill="#FFF" fill-rule="nonzero" transform="translate(.281 .69)">
        <path d="M37.405 6.39C33.262 2.267 27.766 0 21.91 0 16.05 0 10.555 2.268 6.412 6.39c-8.008 7.966-8.564 20.717-1.381 29.32-.704 1.41-1.835 3.05-3.513 3.871a2.027 2.027 0 0 0-1.121 2.14 2.05 2.05 0 0 0 1.714 1.714c.418.065 1.01.13 1.734.13 1.937 0 4.791-.452 7.71-2.545A21.887 21.887 0 0 0 21.9 43.61a21.976 21.976 0 0 0 15.516-6.389c4.143-4.121 6.423-9.589 6.423-15.416s-2.29-11.294-6.433-15.416zm-1.77 29.07c-6.256 6.224-15.941 7.46-23.56 3.006a1.25 1.25 0 0 0-1.52.193.411.411 0 0 0-.102.074c-2.512 1.936-4.977 2.342-6.608 2.342h-.01c1.882-1.364 3.068-3.393 3.763-4.97.112-.267.13-.543.065-.802a1.291 1.291 0 0 0-.306-.7C.573 26.978.925 15.36 8.173 8.15c7.572-7.532 19.89-7.532 27.453 0 7.581 7.533 7.581 19.777.01 27.31z"/>
        <ellipse cx="21.909" cy="21.805" rx="1.539" ry="1.531"/>
        <ellipse cx="29.842" cy="21.805" rx="1.539" ry="1.531"/>
        <ellipse cx="13.975" cy="21.805" rx="1.539" ry="1.531"/>
    </g>
</svg>
