<svg width="100" height="100" viewBox="0 0 100 100" version="1.1" xmlns="http://www.w3.org/2000/svg" xmlns:xlink="http://www.w3.org/1999/xlink">
<title>Group 8</title>
<desc>Created using Figma</desc>
<g id="Canvas" transform="translate(-12614 -332)">
<g id="Group 8">
<g id="Shape">
<use xlink:href="#path0_fill" transform="translate(12663 360)" fill="#F4511E"/>
</g>
<g id="Shape">
<use xlink:href="#path0_fill" transform="translate(12663 369)" fill="#F4511E"/>
</g>
<g id="Shape">
<use xlink:href="#path1_fill" transform="translate(12663 378)" fill="#F4511E"/>
</g>
<g id="Shape">
<use xlink:href="#path2_fill" transform="translate(12682 388)" fill="#F4511E"/>
</g>
<g id="Shape">
<use xlink:href="#path3_fill" transform="translate(12674 388)" fill="#F4511E"/>
</g>
<g id="Shape">
<use xlink:href="#path4_fill" transform="translate(12614 332)" fill="#F4511E"/>
</g>
<g id="Shape">
<use xlink:href="#path5_fill" transform="translate(12675 339)" fill="#F4511E"/>
</g>
</g>
</g>
<defs>
<path id="path0_fill" d="M 39.0476 0L 1.95238 0C 0.874081 0 0 0.8954 0 2C 0 3.1046 0.874081 4 1.95238 4L 39.0476 4C 40.1259 4 41 3.1046 41 2C 41 0.8954 40.1259 0 39.0476 0Z"/>
<path id="path1_fill" d="M 39.0476 0L 1.95238 0C 0.874081 0 0 0.895445 0 2.0001C 0 3.10476 0.874081 4 1.95238 4L 39.0476 4C 40.1259 4 41 3.10456 41 2.0001C 41 0.895645 40.1259 0 39.0476 0Z"/>
<path id="path2_fill" d="M 19.0615 0L 1.93847 0C 0.867852 0 0 0.8956 0 2C 0 3.1044 0.867852 4 1.93847 4L 19.0615 4C 20.1321 4 21 3.1044 21 2C 21 0.8956 20.1321 0 19.0615 0Z"/>
<path id="path3_fill" d="M 2.01232 0L 1.98768 0C 0.889883 0 0 0.8956 0 2C 0 3.1044 0.889883 4 1.98768 4L 2.01232 4C 3.11012 4 4 3.1044 4 2C 4 0.8956 3.11012 0 2.01232 0Z"/>
<path id="path4_fill" fill-rule="evenodd" d="M 98.0469 0L 38.6719 0C 37.5928 0 36.7188 0.87442 36.7188 1.95312L 36.7188 48.7527L 36.1006 48.3559C 35.457 47.9434 34.6318 47.9435 33.9893 48.357L 0.896484 69.6309C 0.336914 69.991 -0.000976562 70.6117 0 71.2779C 0.000976562 71.9438 0.341797 72.5633 0.90332 72.9211L 15.7275 82.367L 15.7275 89.9566C 15.7275 90.6143 16.0586 91.2279 16.6084 91.5891C 17.1582 91.95 17.8525 92.0102 18.4561 91.749C 20.2168 90.9871 22.0908 90.6006 24.0244 90.6006C 27.6611 90.6006 31.1104 91.9889 33.7383 94.5099C 34.1162 94.8725 34.6025 95.0537 35.0898 95.0537C 35.5771 95.0537 36.0645 94.8725 36.4424 94.5102C 39.0703 91.9891 42.5195 90.6006 46.1553 90.6006C 48.0771 90.6006 49.9395 90.982 51.6904 91.7344C 52.2949 91.9936 52.9883 91.9326 53.5361 91.5709C 54.085 91.2096 54.415 90.5969 54.415 89.9398L 54.415 82.474L 66.2949 74.8666L 66.2949 82.765C 64.6836 83.5072 63.5605 85.1367 63.5605 87.0246L 63.5605 98.0469C 63.5605 99.1254 64.4355 100 65.5137 100L 70.9824 100C 72.0615 100 72.9355 99.1254 72.9355 98.0469L 72.9355 87.0244C 72.9355 85.1365 71.8135 83.507 70.2012 82.7648L 70.2012 77.7344L 98.0469 77.7344C 99.126 77.7344 100 76.8598 100 75.7812L 100 1.95312C 100 0.87442 99.126 0 98.0469 0ZM 50.5088 87.2258C 49.0947 86.8725 47.6387 86.6943 46.1553 86.6943C 42.1074 86.6943 38.2402 88.0402 35.0898 90.5158C 31.9404 88.04 28.0732 86.6943 24.0244 86.6943C 22.5283 86.6943 21.0596 86.8758 19.6338 87.2354L 19.6338 77.5807C 22.0723 76.5139 28.3682 74.0869 35.1562 74.0869C 41.9053 74.0869 48.1064 76.5076 50.5088 77.5728L 50.5088 87.2258ZM 54.415 76.3328L 54.415 77.8358L 64.6289 71.2953L 35.0469 52.3211L 5.57617 71.2666L 15.7275 77.735L 15.7275 76.3328C 15.7275 75.5981 16.1396 74.9254 16.7949 74.5922C 17.1484 74.4121 25.5732 70.1807 35.1562 70.1807C 44.748 70.1807 53.0156 74.4193 53.3623 74.5998C 54.0098 74.9358 54.415 75.6041 54.415 76.3328ZM 67.4678 96.0938L 67.4678 87.0244C 67.4678 86.601 67.8252 86.2432 68.249 86.2432C 68.6729 86.2432 69.0303 86.601 69.0303 87.0244L 69.0303 96.0938L 67.4678 96.0938ZM 70.2021 73.8281L 96.0938 73.8281L 96.0938 3.90625L 40.625 3.90625L 40.625 51.2582L 69.3037 69.6525C 69.6875 69.8988 69.9639 70.2687 70.1016 70.6906L 70.1191 70.7455C 70.1318 70.7887 70.1436 70.8322 70.1533 70.8764L 70.1719 70.9725L 70.1777 71.0003L 70.1885 71.084C 70.1953 71.1434 70.1982 71.2035 70.2002 71.2643L 70.2021 71.2975L 70.2021 71.3057L 70.2021 73.8281Z"/>
<path id="path5_fill" fill-rule="evenodd" d="M 0 8C 0 3.58887 3.58887 0 8 0C 12.4111 0 16 3.58887 16 8C 16 12.4111 12.4111 16 8 16C 3.58887 16 0 12.4111 0 8ZM 3.90234 8C 3.90234 10.2595 5.74023 12.0976 8 12.0976C 10.2598 12.0976 12.0977 10.2595 12.0977 8C 12.0977 5.74048 10.2598 3.90244 8 3.90244C 5.74023 3.90244 3.90234 5.74048 3.90234 8Z"/>
</defs>
</svg>
