<svg width="100" height="88" viewBox="0 0 100 88" version="1.1" xmlns="http://www.w3.org/2000/svg" xmlns:xlink="http://www.w3.org/1999/xlink">
<title>Group 14</title>
<desc>Created using Figma</desc>
<g id="Canvas" transform="translate(-13297 -332)">
<g id="Group 14">
<g id="Shape">
<use xlink:href="#path0_fill" transform="translate(13374 385)" fill="#F4511E"/>
</g>
<g id="Shape">
<use xlink:href="#path1_fill" transform="translate(13365 377)" fill="#F4511E"/>
</g>
<g id="Shape">
<use xlink:href="#path2_fill" transform="translate(13297 332)" fill="#F4511E"/>
</g>
<g id="Shape">
<use xlink:href="#path3_fill" transform="translate(13335 349)" fill="#F4511E"/>
</g>
<g id="Shape">
<use xlink:href="#path4_fill" transform="translate(13319 357)" fill="#F4511E"/>
</g>
<g id="Shape">
<use xlink:href="#path5_fill" transform="translate(13319 365)" fill="#F4511E"/>
</g>
<g id="Shape">
<use xlink:href="#path6_fill" transform="translate(13329 374)" fill="#F4511E"/>
</g>
<g id="Shape">
<use xlink:href="#path7_fill" transform="translate(13319 374)" fill="#F4511E"/>
</g>
<g id="Shape">
<use xlink:href="#path8_fill" transform="translate(13319 382)" fill="#F4511E"/>
</g>
<g id="Shape">
<use xlink:href="#path8_fill" transform="translate(13339 382)" fill="#F4511E"/>
</g>
</g>
</g>
<defs>
<path id="path0_fill" d="M 10.2856 0C 9.25699 0 8.57134 0.685663 8.57134 1.71426C 8.57134 5.4857 5.48561 8.57149 1.71423 8.57149C 0.685651 8.57149 0 9.25715 0 10.2857C 0 11.3143 0.685651 12 1.71423 12C 7.3714 12 12 7.37133 12 1.71406C 12 0.685663 11.3141 0 10.2856 0Z"/>
<path id="path1_fill" d="M 12 1.71423C 12 0.685651 11.3143 0 10.2858 0C 4.6286 0 0 4.6286 0 10.2858C 0 11.3143 0.685651 12 1.71423 12C 2.74281 12 3.42846 11.3143 3.42846 10.2858C 3.42846 6.51439 6.51419 3.42866 10.2856 3.42866C 11.3143 3.42846 12 2.74281 12 1.71423Z"/>
<path id="path2_fill" fill-rule="evenodd" d="M 98.333 0L 1.66699 0C 0.666992 0 0 0.664215 0 1.66037L 0 74.7113C 0 75.7075 0.666992 76.3715 1.66699 76.3715L 70 76.3715L 70 86.333C 70 86.997 70.333 87.6613 71 87.8272C 71.667 88.1594 72.333 87.9932 72.833 87.4951L 78.333 82.0163L 83.833 87.4951C 84.167 87.8272 84.5 87.9932 85 87.9932C 85.0928 87.9932 85.2363 87.9932 85.4033 87.9647C 85.5361 87.942 85.6846 87.901 85.833 87.8272C 86.5 87.6613 86.833 86.997 86.833 86.333L 86.833 76.3715L 98.333 76.3715C 99.333 76.3715 100 75.7075 100 74.7113L 100 1.66037C 100 0.664215 99.333 0 98.333 0ZM 78.333 68.0702C 75.1465 68.0702 72.2119 66.9402 69.9111 65.0639C 69.8115 64.9818 69.7139 64.8979 69.6172 64.8133L 69.5391 64.7464C 67.3164 62.7798 65.7754 60.1328 65.2246 57.1937L 65.1885 56.992L 65.1387 56.6834L 65.1006 56.4009L 65.0781 56.2114L 65.0596 56.0166C 65.0459 55.867 65.0342 55.7168 65.0244 55.5656L 65.0156 55.3861L 65.0078 55.2119L 65.002 54.9865L 65 54.7882C 65 47.483 71 41.5061 78.333 41.5061C 78.5342 41.5061 78.7344 41.5125 78.9336 41.5213L 79.1152 41.5309C 79.2637 41.5394 79.4111 41.5513 79.5586 41.5647L 79.8018 41.589L 80.0635 41.6209L 80.2246 41.6429C 80.3418 41.66 80.459 41.6787 80.5752 41.6989L 80.7031 41.7217C 84.7266 42.4591 88.209 45.0502 90.167 48.8111C 90.2012 48.8794 90.2402 48.9439 90.2852 49.0049C 90.3164 49.0481 90.3496 49.0894 90.3857 49.129C 91.2051 50.8483 91.667 52.7669 91.667 54.788C 91.667 62.0933 85.667 68.0702 78.333 68.0702ZM 79.1748 38.2072C 83.374 38.4179 87.1748 40.1975 90 42.9638L 90 16.4365C 86.667 15.7724 84.167 13.282 83.5 9.96149L 16.5 9.96149C 15.833 13.282 13.333 15.7724 10 16.4365L 10 59.9349C 13.333 60.5989 15.833 63.0893 16.5 66.4099L 66.4629 66.4099C 63.6865 63.5961 61.8994 59.8098 61.6885 55.6263C 61.6738 55.3483 61.667 55.0689 61.667 54.7882C 61.667 45.6569 69.167 38.1858 78.333 38.1858C 78.6152 38.1858 78.8955 38.193 79.1748 38.2072ZM 83.333 82.3484L 79.5 78.5298C 79.166 78.1977 78.833 78.0317 78.333 78.0317C 77.833 78.0317 77.5 78.1977 77.166 78.5298L 73.333 82.3484L 73.333 74.7113L 73.333 70.7267C 76.5 71.7229 80.166 71.7229 83.333 70.7267L 83.333 74.7113L 83.333 82.3484ZM 86.833 73.051L 96.666 73.051L 96.666 3.32037L 3.33301 3.32037L 3.33301 73.0508L 70 73.0508L 70 69.7302L 15 69.7302C 14 69.7302 13.333 69.0662 13.333 68.07C 13.333 65.2476 11.166 63.0893 8.33301 63.0893C 7.33301 63.0893 6.66602 62.4253 6.66602 61.4291L 6.66602 14.9422C 6.66602 13.9461 7.33301 13.282 8.33301 13.282C 11.166 13.282 13.333 11.1238 13.333 8.3013C 13.333 7.30518 14 6.64111 15 6.64111L 85 6.64111C 86 6.64111 86.666 7.30518 86.666 8.3013C 86.666 11.1238 88.833 13.282 91.666 13.282C 92.666 13.282 93.333 13.9461 93.333 14.9422L 93.333 47.5747C 94.3994 49.7592 94.999 52.2072 94.999 54.7882C 94.999 60.8318 91.7129 66.1458 86.833 69.0502L 86.833 73.051Z"/>
<path id="path3_fill" d="M 1.6428 3L 21.3572 3C 22.3429 3 23 2.40004 23 1.5C 23 0.599965 22.3429 0 21.3572 0L 1.6428 0C 0.657082 0 0 0.599965 0 1.5C 0 2.40004 0.657082 3 1.6428 3Z"/>
<path id="path4_fill" d="M 55.3234 0L 1.67641 0C 0.670524 0 0 0.599965 0 1.5C 0 2.40004 0.670524 3 1.67641 3L 55.3236 3C 56.3295 3 57 2.40004 57 1.5C 57 0.600141 56.3293 0 55.3234 0Z"/>
<path id="path5_fill" d="M 55.3234 0L 1.67641 0C 0.670524 0 0 0.599965 0 1.5C 0 2.40004 0.670524 3 1.67641 3L 55.3236 3C 56.3295 3 57 2.40004 57 1.5C 57 0.599965 56.3293 0 55.3234 0Z"/>
<path id="path6_fill" d="M 25.3124 0L 1.68744 0C 0.674936 0 0 0.599965 0 1.5C 0 2.40004 0.674936 3 1.68744 3L 25.3126 3C 26.3251 3 27 2.40004 27 1.5C 27 0.599965 26.3249 0 25.3124 0Z"/>
<path id="path7_fill" d="M 1.74995 3L 5.25005 3C 6.30006 3 7 2.40004 7 1.5C 7 0.599965 6.30006 0 5.25005 0L 1.74995 0C 0.699939 0 0 0.599965 0 1.5C 0 2.40004 0.699939 3 1.74995 3Z"/>
<path id="path8_fill" d="M 15.3001 0L 1.69994 0C 0.679936 0 0 0.599965 0 1.5C 0 2.40004 0.679936 3 1.69994 3L 15.3001 3C 16.3201 3 17 2.40004 17 1.5C 17.0002 0.600141 16.3201 0 15.3001 0Z"/>
</defs>
</svg>
