<svg width="51" height="51" viewBox="0 0 51 51" version="1.1" xmlns="http://www.w3.org/2000/svg" xmlns:xlink="http://www.w3.org/1999/xlink">
<title>clock</title>
<desc>Created using Figma</desc>
<g id="Canvas" transform="translate(-10606 -166)">
<g id="clock">
<use xlink:href="#path0_fill" transform="translate(10606 166)" fill="#F4511E"/>
</g>
</g>
<defs>
<path id="path0_fill" fill-rule="evenodd" d="M 25.4996 45.9C 14.2516 45.9 5.09961 36.7481 5.09961 25.5C 5.09961 14.252 14.2516 5.10001 25.4996 5.10001C 36.7477 5.10001 45.8996 14.252 45.8996 25.5C 45.8996 36.7481 36.7477 45.9 25.4996 45.9ZM 25.5004 3.39999C 13.3139 3.39999 3.40039 13.3144 3.40039 25.5C 3.40039 37.6856 13.3139 47.6 25.5004 47.6C 37.6868 47.6 47.6004 37.6856 47.6004 25.5C 47.6004 13.3144 37.6868 3.39999 25.5004 3.39999ZM 51 4.25L 51 46.75C 51 49.0934 49.0934 51 46.75 51C 46.2799 51 45.9 50.6192 45.9 50.15C 45.9 49.6808 46.2799 49.3 46.75 49.3C 48.1559 49.3 49.3 48.1559 49.3 46.75L 49.3 4.25C 49.3 2.8441 48.1559 1.7 46.75 1.7L 4.25 1.7C 2.8441 1.7 1.7 2.8441 1.7 4.25L 1.7 46.75C 1.7 48.1559 2.8441 49.3 4.25 49.3L 43.35 49.3C 43.82 49.3 44.2 49.6808 44.2 50.15C 44.2 50.6192 43.82 51 43.35 51L 4.25 51C 1.90655 51 0 49.0934 0 46.75L 0 4.25C 0 1.90655 1.90655 0 4.25 0L 46.75 0C 49.0934 0 51 1.90655 51 4.25ZM 10.2001 26.3508L 7.65176 26.3508C 7.18171 26.3508 6.80176 25.97 6.80176 25.5008C 6.80176 25.0316 7.18256 24.6508 7.65176 24.6508L 10.2001 24.6508C 10.6701 24.6508 11.0501 25.0316 11.0501 25.5008C 11.0501 25.9709 10.6693 26.3508 10.2001 26.3508ZM 44.1984 25.5C 44.1984 25.97 43.8176 26.35 43.3484 26.35L 40.7992 26.35C 40.3292 26.35 39.9492 25.9692 39.9492 25.5C 39.9492 25.0308 40.33 24.65 40.7992 24.65L 43.3484 24.65C 43.8184 24.65 44.1984 25.0308 44.1984 25.5ZM 17.517 40.6929L 17.092 41.429C 16.9347 41.7018 16.6491 41.854 16.355 41.854C 16.2105 41.854 16.0643 41.8174 15.9309 41.7401C 15.5246 41.5055 15.3852 40.9861 15.6198 40.579L 16.0448 39.8429C 16.2794 39.4366 16.8004 39.2972 17.2059 39.5318C 17.613 39.7664 17.7524 40.2866 17.517 40.6929ZM 11.3981 33.5682C 11.6336 33.9745 11.4933 34.4947 11.087 34.7293L 10.3518 35.1543C 10.2183 35.2317 10.0721 35.2682 9.9276 35.2682C 9.6335 35.2682 9.3479 35.1161 9.19065 34.8441C 8.9552 34.4369 9.0946 33.9176 9.50175 33.6821L 10.237 33.2571C 10.6425 33.0217 11.1627 33.1619 11.3981 33.5682ZM 11.4683 17.2057C 11.311 17.4786 11.0254 17.6307 10.7313 17.6307C 10.5868 17.6307 10.4406 17.5942 10.3072 17.5168L 9.57109 17.0918C 9.16394 16.8572 9.02454 16.3379 9.25999 15.9307C 9.49459 15.5236 10.0139 15.3842 10.4211 15.6196L 11.1572 16.0446C 11.5635 16.2792 11.7037 16.7994 11.4683 17.2057ZM 17.7431 10.2357C 17.9777 10.6429 17.8383 11.1622 17.432 11.3977C 17.2986 11.475 17.1524 11.5116 17.0079 11.5116C 16.7138 11.5116 16.4282 11.3594 16.2709 11.0866L 15.8459 10.3513C 15.6105 9.94501 15.7499 9.42481 16.157 9.19021C 16.5616 8.95391 17.0827 9.09416 17.3181 9.50046L 17.7431 10.2357ZM 33.4836 10.3071L 33.9086 9.571C 34.1441 9.16385 34.6626 9.02445 35.0697 9.2599C 35.476 9.4945 35.6154 10.0138 35.3808 10.421L 34.9558 11.1571C 34.7977 11.4299 34.513 11.5821 34.2189 11.5821C 34.0744 11.5821 33.9282 11.5455 33.7947 11.4682C 33.3876 11.2336 33.2482 10.7134 33.4836 10.3071ZM 39.6026 17.4318C 39.3671 17.0255 39.5074 16.5053 39.9137 16.2707L 40.6489 15.8457C 41.0544 15.6094 41.5746 15.7496 41.81 16.1559C 42.0455 16.5631 41.9061 17.0824 41.4989 17.3179L 40.7637 17.7429C 40.6302 17.8202 40.484 17.8568 40.3395 17.8568C 40.0454 17.8568 39.7598 17.7046 39.6026 17.4318ZM 41.7406 35.0693C 41.5833 35.3421 41.2977 35.4943 41.0036 35.4943C 40.8591 35.4943 40.7129 35.4577 40.5795 35.3812L 39.8434 34.9562C 39.4371 34.7208 39.2968 34.2014 39.5323 33.7943C 39.7669 33.3871 40.2871 33.2477 40.6934 33.4832L 41.4295 33.9082C 41.8366 34.1428 41.976 34.663 41.7406 35.0693ZM 35.1547 40.6495C 35.3901 41.0558 35.2507 41.576 34.8436 41.8098C 34.7101 41.888 34.5639 41.9245 34.4194 41.9245C 34.1253 41.9245 33.8406 41.7724 33.6825 41.4995L 33.2575 40.7634C 33.0229 40.3571 33.1623 39.8369 33.5686 39.6023C 33.974 39.366 34.4942 39.5071 34.7297 39.9134L 35.1547 40.6495ZM 26.3504 40.8L 26.3504 43.35C 26.3504 43.8192 25.9704 44.2 25.5004 44.2C 25.0303 44.2 24.6504 43.8192 24.6504 43.35L 24.6504 40.8C 24.6504 40.3308 25.0303 39.95 25.5004 39.95C 25.9704 39.95 26.3504 40.3308 26.3504 40.8ZM 25.5004 26.35C 25.0312 26.35 24.6504 25.9683 24.6504 25.5C 24.6504 25.0316 25.0312 24.65 25.5004 24.65C 25.9696 24.65 26.3504 25.0316 26.3504 25.5C 26.3504 25.9683 25.9696 26.35 25.5004 26.35ZM 37.4 24.65L 27.8927 24.65C 27.6369 23.9301 27.0708 23.3631 26.35 23.1064L 26.35 7.65C 26.35 7.1808 25.9701 6.8 25.5 6.8C 25.0299 6.8 24.65 7.1808 24.65 7.65L 24.65 23.1064C 23.9292 23.3631 23.3631 23.9301 23.1073 24.65L 22.1 24.65C 21.6299 24.65 21.25 25.0308 21.25 25.5C 21.25 25.9692 21.6299 26.35 22.1 26.35L 23.1073 26.35C 23.3631 27.07 23.9292 27.6369 24.65 27.8928L 24.65 28.9C 24.65 29.3692 25.0299 29.75 25.5 29.75C 25.9701 29.75 26.35 29.3692 26.35 28.9L 26.35 27.8936C 27.0708 27.6369 27.6369 27.07 27.8927 26.35L 37.4 26.35C 37.87 26.35 38.25 25.9692 38.25 25.5C 38.25 25.0308 37.87 24.65 37.4 24.65Z"/>
</defs>
</svg>
