<svg width="51" height="51" viewBox="0 0 51 51" version="1.1" xmlns="http://www.w3.org/2000/svg" xmlns:xlink="http://www.w3.org/1999/xlink">
<title>handshake</title>
<desc>Created using Figma</desc>
<g id="Canvas" transform="translate(-10606 -249)">
<g id="handshake">
<use xlink:href="#path0_fill" transform="translate(10606 249)" fill="#F4511E"/>
</g>
</g>
<defs>
<path id="path0_fill" fill-rule="evenodd" d="M 40.5335 34.2715C 41.8586 35.5968 41.8586 37.7542 40.5335 39.0804C 40.0957 39.5173 39.567 39.8106 39.0086 39.9593L 39.3307 40.2823C 40.6567 41.6085 40.6567 43.7651 39.3307 45.0903C 38.2844 46.1368 36.7187 46.3586 35.4548 45.7517C 35.3256 46.4079 35.006 47.0115 34.5223 47.4952C 33.5151 48.5042 31.8924 48.7584 30.6464 48.1574C 30.5172 48.8136 30.1967 49.4163 29.7139 49.9C 29.0518 50.5622 28.1805 50.8937 27.3101 50.8946C 26.4389 50.8946 25.5685 50.5622 24.9064 49.9L 10.4488 35.454C 7.86315 32.8681 7.31235 29.6727 6.87036 27.1055C 6.54906 25.2379 6.27111 23.6253 5.34887 22.703C 5.01652 22.3706 5.01652 21.8333 5.34887 21.501C 5.68122 21.1686 6.21841 21.1686 6.55076 21.501C 7.85465 22.805 8.1904 24.7533 8.54569 26.8164C 8.96814 29.2689 9.44669 32.0477 11.6507 34.252L 26.1082 48.6972C 26.7712 49.3611 27.8507 49.3594 28.512 48.698C 28.8333 48.3767 29.0101 47.95 29.0101 47.496C 29.0101 47.0412 28.8333 46.6145 28.512 46.2932L 20.6989 38.4794C 20.3665 38.147 20.3665 37.6089 20.6989 37.2774C 21.0304 36.945 21.5684 36.945 21.9008 37.2774L 29.7131 45.0903L 29.7139 45.0903L 30.9167 46.2923C 31.5593 46.9358 32.6778 46.9358 33.3204 46.2932C 33.9834 45.6301 33.9834 44.5514 33.3204 43.8883L 23.7045 34.2715C 23.3721 33.9391 23.3721 33.4011 23.7045 33.0695C 24.036 32.7372 24.574 32.7372 24.9064 33.0695L 35.7242 43.8892C 36.3881 44.5522 37.4659 44.5505 38.1288 43.8883C 38.7918 43.2261 38.7918 42.1474 38.1288 41.4843L 26.7092 30.0637C 26.3768 29.7322 26.3768 29.1941 26.7092 28.8617C 27.0407 28.5293 27.5787 28.5293 27.9111 28.8617L 36.9261 37.8784C 37.59 38.5406 38.6694 38.5397 39.3307 37.8784C 39.9937 37.2153 39.9937 36.1366 39.3307 35.4735L 30.3157 26.4577C 29.9834 26.1253 29.9834 25.5872 30.3157 25.2549C 30.6481 24.9233 31.1853 24.9233 31.5176 25.2549L 40.5335 34.2715ZM 45.2991 18.1007C 43.9178 19.4821 43.4435 21.7322 42.9854 23.9084C 42.5791 25.8397 42.1583 27.8382 41.135 28.8617L 39.9322 30.0637C 39.6007 30.3961 39.6007 30.9342 39.9322 31.2657C 40.0988 31.4323 40.3164 31.5148 40.534 31.5148C 40.7508 31.5148 40.9684 31.4323 41.135 31.2657L 42.3368 30.0637C 43.7172 28.6832 44.1907 26.4339 44.6488 24.2586C 45.056 22.3255 45.4776 20.327 46.501 19.3027C 46.8333 18.9712 46.8333 18.4331 46.501 18.1007C 46.1686 17.7683 45.6314 17.7683 45.2991 18.1007ZM 13.5889 23.4519C 13.5889 23.9067 13.7665 24.3334 14.0878 24.6539L 14.6888 25.2549C 15.492 26.0573 16.5579 26.4994 17.6935 26.4994C 18.8291 26.4994 19.8958 26.0573 20.6991 25.2549L 24.9329 21.0207C 26.6099 22.4216 28.7034 23.1841 30.9134 23.1841C 30.9151 23.1841 30.916 23.1841 30.9177 23.1841C 33.4158 23.1824 35.7669 22.2074 37.5357 20.4375C 37.8681 20.1052 37.8681 19.5671 37.5357 19.2355C 37.2034 18.9032 36.6662 18.9032 36.3338 19.2355C 34.8854 20.684 32.9611 21.4831 30.9168 21.484C 30.916 21.484 30.9143 21.484 30.9143 21.484C 28.8717 21.484 26.9516 20.6883 25.5075 19.244C 25.1751 18.9125 24.6371 18.9125 24.3056 19.244L 19.4963 24.0529C 18.5341 25.016 16.8537 25.016 15.8906 24.0529L 15.2897 23.4519L 25.5075 13.2332C 26.4603 12.2803 27.3656 12.2803 28.5122 12.2803C 29.7396 12.2803 31.2687 12.2803 32.7197 10.8292L 35.1234 8.42438C 35.4558 8.092 35.4558 7.55391 35.1234 7.22238C 34.7919 6.89 34.2539 6.89 33.9215 7.22238L 31.5178 9.62722C 30.5641 10.5801 29.6588 10.5801 28.5122 10.5801C 27.2848 10.5801 25.7565 10.5801 24.3056 12.0312L 14.0887 22.249C 13.7665 22.5703 13.5889 22.9971 13.5889 23.4519ZM 15.8912 12.0312L 18.295 14.4352C 18.4616 14.6018 18.6792 14.6843 18.8959 14.6843C 19.1135 14.6843 19.3311 14.6018 19.4969 14.4352C 19.8292 14.1037 19.8292 13.5656 19.4969 13.2332L 17.0931 10.8292C 16.7616 10.4968 16.2235 10.4968 15.8912 10.8292C 15.5597 11.1607 15.5597 11.6988 15.8912 12.0312ZM 15.901 7.04982L 10.8011 1.94942C 10.4687 1.61704 9.93153 1.61704 9.59918 1.94942C 9.26684 2.28179 9.26684 2.81904 9.59918 3.15141L 14.0982 7.65082L 0.24926 21.501C -0.0830868 21.8333 -0.0830868 22.3706 0.24926 22.703C 0.415009 22.8687 0.632607 22.952 0.850205 22.952C 1.0678 22.952 1.2854 22.8687 1.45115 22.703L 15.901 8.25182C 16.2334 7.91944 16.2334 7.3822 15.901 7.04982ZM 50.7506 18.1007L 36.9017 4.25055L 39.7007 1.45128C 40.0331 1.1189 40.0331 0.581659 39.7007 0.249282C 39.3684 -0.0830941 38.8312 -0.0830941 38.4988 0.249282L 35.0989 3.64955C 34.7665 3.98193 34.7665 4.51917 35.0989 4.85155L 49.5487 19.3027C 49.7145 19.4685 49.9321 19.5518 50.1497 19.5518C 50.3673 19.5518 50.5849 19.4685 50.7506 19.3027C 51.083 18.9703 51.083 18.4331 50.7506 18.1007ZM 20.9062 49.1469C 20.4328 49.3951 19.6244 49.4248 18.896 48.698C 18.1675 47.9687 18.1735 47.1211 18.4098 46.7522C 18.6444 46.3867 18.5662 45.9038 18.227 45.631C 17.8896 45.3581 17.4008 45.3836 17.0932 45.6922C 16.4293 46.3552 15.3498 46.3544 14.6885 45.6922C 14.0264 45.0291 14.0264 43.9504 14.6885 43.2873C 14.8551 43.1216 14.9376 42.904 14.9376 42.6863C 14.9376 42.4687 14.8551 42.252 14.6885 42.0853C 14.357 41.7538 13.819 41.7538 13.4866 42.0853L 12.8857 42.6863C 12.2235 43.3494 11.1441 43.3494 10.4819 42.6863C 9.81976 42.0233 9.81976 40.9446 10.4819 40.2824L 11.0829 39.6814C 11.3854 39.3796 11.416 38.9001 11.156 38.5618C 10.8959 38.2235 10.4241 38.1308 10.0561 38.3442C 9.59366 38.6111 8.78022 38.5797 8.07813 37.8784C 7.33183 37.132 7.33523 36.3049 7.57578 35.9564C 7.84268 35.5704 7.74493 35.0408 7.35903 34.7739C 6.97229 34.5061 6.44359 34.6039 6.17669 34.9907C 5.48905 35.987 5.50775 37.7117 6.87624 39.0804C 7.41513 39.6185 8.00163 39.9398 8.57962 40.0936C 8.38582 40.5255 8.28382 40.9973 8.28382 41.4843C 8.28382 42.3922 8.63742 43.2465 9.28002 43.8883C 10.1521 44.7614 11.3854 45.0597 12.5049 44.7835C 12.5712 45.5536 12.8984 46.3059 13.4866 46.8942C 14.3324 47.7391 15.5139 48.0452 16.6036 47.8139C 16.709 48.5178 17.0498 49.2548 17.6941 49.9C 18.4803 50.6855 19.3983 51 20.2364 51C 20.7745 51 21.2794 50.8699 21.695 50.6523C 22.1107 50.4347 22.2713 49.9213 22.0529 49.5047C 21.8353 49.0899 21.3202 48.9284 20.9062 49.1469ZM 7.65018 9.35095C 8.58772 9.35095 9.35017 8.58844 9.35017 7.65082C 9.35017 6.71319 8.58772 5.95068 7.65018 5.95068C 6.71264 5.95068 5.9502 6.71319 5.9502 7.65082C 5.9502 8.58844 6.71264 9.35095 7.65018 9.35095ZM 43.3494 5.95068C 44.2861 5.95068 45.0494 5.18817 45.0494 4.25055C 45.0494 3.31293 44.2861 2.55042 43.3494 2.55042C 42.4127 2.55042 41.6494 3.31293 41.6494 4.25055C 41.6494 5.18817 42.4127 5.95068 43.3494 5.95068Z"/>
</defs>
</svg>
