<svg width="47" height="51" viewBox="0 0 47 51" version="1.1" xmlns="http://www.w3.org/2000/svg" xmlns:xlink="http://www.w3.org/1999/xlink">
<title>diploma</title>
<desc>Created using Figma</desc>
<g id="Canvas" transform="translate(-10608 -333)">
<g id="diploma">
<use xlink:href="#path0_fill" transform="translate(10608 333)" fill="#F4511E"/>
</g>
</g>
<defs>
<path id="path0_fill" fill-rule="evenodd" d="M 47 7.65306L 47 43.3673C 47 44.102 46.8011 44.8325 46.4251 45.4796C 46.269 45.7491 45.9887 45.8988 45.7008 45.8988C 45.5564 45.8988 45.4104 45.8614 45.2761 45.7815C 44.8766 45.5434 44.744 45.0221 44.9782 44.6173C 45.2023 44.2313 45.3214 43.7985 45.3214 43.3673L 45.3214 7.65306C 45.3214 4.37075 42.6852 1.70068 39.4464 1.70068L 7.55357 1.70068C 4.31729 1.70068 1.68445 4.36565 1.67857 7.64286C 1.68193 9.75765 2.80741 11.7287 4.61691 12.7908C 5.01725 13.0255 5.15573 13.5459 4.92241 13.9524C 4.68993 14.358 4.17712 14.4966 3.77595 14.2619C 1.45532 12.9014 0.0109107 10.375 0 7.66327C 0 7.65986 0 7.65646 0 7.65306C 0 7.64966 0 7.64626 0 7.64286C 0 7.64031 0 7.6369 0 7.6335C 0 7.6301 0 7.6267 0 7.6233C 0.0159464 3.41752 3.39827 0 7.55357 0L 39.4464 0C 43.6118 0 47 3.43282 47 7.65306ZM 14.268 13.5859L 17.6251 13.5859C 18.0893 13.5859 18.4644 13.2049 18.4644 12.7355C 18.4644 12.2661 18.0893 11.8852 17.6251 11.8852L 14.268 11.8852C 13.8039 11.8852 13.4287 12.2661 13.4287 12.7355C 13.4287 13.2049 13.8039 13.5859 14.268 13.5859ZM 32.7317 13.5859C 33.1959 13.5859 33.571 13.2049 33.571 12.7355C 33.571 12.2661 33.1959 11.8852 32.7317 11.8852L 31.0532 11.8852C 30.589 11.8852 30.2139 12.2661 30.2139 12.7355C 30.2139 13.2049 30.589 13.5859 31.0532 13.5859L 32.7317 13.5859ZM 27.6961 11.8852L 20.9819 11.8852C 20.5177 11.8852 20.1426 12.2661 20.1426 12.7355C 20.1426 13.2049 20.5177 13.5859 20.9819 13.5859L 27.6961 13.5859C 28.1603 13.5859 28.5354 13.2049 28.5354 12.7355C 28.5354 12.2661 28.1603 11.8852 27.6961 11.8852ZM 14.268 23.79L 19.3037 23.79C 19.7678 23.79 20.143 23.409 20.143 22.9396C 20.143 22.4702 19.7678 22.0893 19.3037 22.0893L 14.268 22.0893C 13.8039 22.0893 13.4287 22.4702 13.4287 22.9396C 13.4287 23.409 13.8039 23.79 14.268 23.79ZM 33.5713 22.9396C 33.5713 23.409 33.9464 23.79 34.4106 23.79L 39.4463 23.79C 39.9104 23.79 40.2856 23.409 40.2856 22.9396C 40.2856 22.4702 39.9104 22.0893 39.4463 22.0893L 34.4106 22.0893C 33.9464 22.0893 33.5713 22.4702 33.5713 22.9396ZM 28.5361 17.8376C 28.5361 18.307 28.9113 18.6879 29.3754 18.6879L 37.7683 18.6879C 38.2324 18.6879 38.6076 18.307 38.6076 17.8376C 38.6076 17.3682 38.2324 16.9872 37.7683 16.9872L 29.3754 16.9872C 28.9113 16.9872 28.5361 17.3682 28.5361 17.8376ZM 22.6606 22.0893C 22.1964 22.0893 21.8213 22.4702 21.8213 22.9396C 21.8213 23.409 22.1964 23.79 22.6606 23.79L 31.0534 23.79C 31.5176 23.79 31.8927 23.409 31.8927 22.9396C 31.8927 22.4702 31.5176 22.0893 31.0534 22.0893L 22.6606 22.0893ZM 14.268 18.6879L 26.018 18.6879C 26.4821 18.6879 26.8573 18.307 26.8573 17.8376C 26.8573 17.3682 26.4821 16.9872 26.018 16.9872L 14.268 16.9872C 13.8039 16.9872 13.4287 17.3682 13.4287 17.8376C 13.4287 18.307 13.8039 18.6879 14.268 18.6879ZM 14.268 28.892L 24.3394 28.892C 24.8036 28.892 25.1787 28.511 25.1787 28.0417C 25.1787 27.5723 24.8036 27.1913 24.3394 27.1913L 14.268 27.1913C 13.8039 27.1913 13.4287 27.5723 13.4287 28.0417C 13.4287 28.511 13.8039 28.892 14.268 28.892ZM 36.9288 28.0417C 36.9288 27.5723 36.5537 27.1913 36.0896 27.1913L 27.6967 27.1913C 27.2326 27.1913 26.8574 27.5723 26.8574 28.0417C 26.8574 28.511 27.2326 28.892 27.6967 28.892L 36.0896 28.892C 36.5537 28.892 36.9288 28.511 36.9288 28.0417ZM 36.9283 44.1981C 34.1511 44.1981 31.8926 41.9099 31.8926 39.0961C 31.8926 36.2823 34.1511 33.994 36.9283 33.994C 39.7055 33.994 41.964 36.2823 41.964 39.0961C 41.964 41.9099 39.7055 44.1981 36.9283 44.1981ZM 40.2856 39.0961C 40.2856 37.2202 38.7799 35.6947 36.9284 35.6947C 35.077 35.6947 33.5713 37.2202 33.5713 39.0961C 33.5713 40.9719 35.077 42.4975 36.9284 42.4975C 38.7799 42.4975 40.2856 40.9719 40.2856 39.0961ZM 42.4915 43.6497C 42.259 43.2423 41.7445 43.1029 41.345 43.3384C 40.943 43.5731 40.8054 44.0935 41.037 44.5L 42.8524 47.6828L 42.3337 47.7143C 42.0702 47.7304 41.8293 47.8716 41.6833 48.0944L 41.3979 48.5332L 39.6002 45.3767C 39.3668 44.9702 38.8532 44.8308 38.4529 45.0655C 38.0517 45.3002 37.914 45.8206 38.1457 46.227L 40.6233 50.5748C 40.7693 50.8299 41.0353 50.9906 41.3249 51C 41.3341 51 41.3425 51 41.3509 51C 41.6312 51 41.8956 50.8571 42.0517 50.6182L 42.8541 49.3869L 44.3077 49.2976C 44.599 49.2806 44.8591 49.1114 44.9968 48.852C 45.1344 48.5927 45.1294 48.2789 44.985 48.0238L 42.4915 43.6497ZM 35.4132 45.0493C 35.0128 44.8146 34.4992 44.9541 34.2667 45.3605L 32.4597 48.5331L 32.1727 48.0944C 32.0275 47.8707 31.7866 47.7296 31.5231 47.7143L 31.0044 47.6828L 32.8416 44.46C 33.0733 44.0536 32.9356 43.5331 32.5344 43.2985C 32.1333 43.0629 31.6196 43.2024 31.3871 43.6097L 28.8718 48.0238C 28.7266 48.2789 28.7224 48.5927 28.86 48.852C 28.9977 49.1114 29.2579 49.2806 29.5491 49.2976L 31.0036 49.386L 31.8068 50.6182C 31.962 50.8571 32.2256 51 32.5067 51C 32.5151 51 32.5235 51 32.5328 51C 32.8223 50.9906 33.0884 50.8299 33.2344 50.5748L 35.7212 46.2109C 35.9528 45.8044 35.8152 45.284 35.4132 45.0493ZM 14.3567 39.4762C 14.5632 39.8963 15.0676 40.0663 15.4822 39.8571C 15.8968 39.6471 16.0655 39.1361 15.8574 38.716C 15.0265 37.0323 14.8402 35.5221 15.3572 34.6743C 15.6325 34.2228 16.1125 33.994 16.7856 33.994C 17.186 33.994 17.3354 34.1335 17.4294 34.2696C 18.0546 35.1828 17.4604 37.9643 16.8385 39.648C 16.7 40.023 16.8385 40.4447 17.1709 40.6616C 17.5015 40.8767 17.9388 40.8299 18.2183 40.5476C 18.5767 40.1854 18.9653 39.824 19.3035 39.5306L 19.3035 39.9464C 19.3035 40.29 19.5074 40.6003 19.8213 40.7313C 20.1352 40.8639 20.4953 40.7908 20.7361 40.5476C 21.1197 40.1599 21.5645 39.7798 21.9388 39.506C 21.9288 39.5272 21.9187 39.5476 21.9086 39.5672C 21.7802 39.8308 21.7945 40.1437 21.9472 40.3937C 22.1008 40.6437 22.3702 40.7968 22.6606 40.7968L 26.0178 40.7968C 26.4819 40.7968 26.8571 40.4158 26.8571 39.9464C 26.8571 39.477 26.4819 39.0961 26.0178 39.0961L 23.8331 39.0961C 23.9011 38.6913 23.8843 38.2798 23.682 37.9481C 23.468 37.5969 23.0954 37.3954 22.6606 37.3954C 22.142 37.3954 21.5318 37.7151 20.9745 38.1114C 20.9317 37.7406 20.7152 37.4354 20.3862 37.2976C 20.1621 37.2041 19.8734 37.0816 19.1726 37.5077C 19.4487 36.0425 19.5293 34.3537 18.8092 33.301C 18.4944 32.841 17.8885 32.2934 16.7856 32.2934C 15.5284 32.2934 14.5137 32.8214 13.9287 33.7806C 13.0919 35.1531 13.2472 37.2287 14.3567 39.4762ZM 26.8574 45.8988L 10.911 45.8988C 9.52281 45.8988 8.39314 44.7543 8.39314 43.3478L 8.39314 4.23215C 8.39314 3.76276 8.01798 3.38181 7.55385 3.38181C 5.23994 3.38181 3.35742 5.28912 3.35742 7.63351C 3.35742 8.10289 3.73258 8.48385 4.19671 8.48385C 4.66083 8.48385 5.03599 8.10289 5.03599 7.63351C 5.03599 6.52466 5.73764 5.57908 6.71456 5.22789L 6.71456 43.3478C 6.71456 45.6922 8.59708 47.5995 10.911 47.5995L 26.8574 47.5995C 27.3215 47.5995 27.6967 47.2185 27.6967 46.7492C 27.6967 46.2798 27.3215 45.8988 26.8574 45.8988Z"/>
</defs>
</svg>
