<svg width="50" height="54" viewBox="0 0 50 54" version="1.1" xmlns="http://www.w3.org/2000/svg" xmlns:xlink="http://www.w3.org/1999/xlink">
<title>paper-exam</title>
<desc>Created using Figma</desc>
<g id="Canvas" transform="translate(-10605 -584)">
<g id="paper-exam">
<use xlink:href="#path0_fill" transform="translate(10605 584)" fill="#F4511E"/>
</g>
</g>
<defs>
<path id="path0_fill" fill-rule="evenodd" d="M 28.5695 53.1C 28.5695 53.5968 28.1695 54 27.6767 54L 4.46399 54C 2.00254 54 0 51.9813 0 49.5L 0 4.5C 0 2.0187 2.00254 0 4.46399 0L 33.0335 0C 33.2701 0 33.4978 0.0945 33.6647 0.2637L 42.5927 9.2637C 42.9418 9.6156 42.9418 10.1844 42.5927 10.5363C 42.2436 10.8882 41.6794 10.8882 41.3303 10.5363L 32.6639 1.8L 4.46399 1.8C 2.9873 1.8 1.78559 3.0114 1.78559 4.5L 1.78559 49.5C 1.78559 50.9886 2.9873 52.2 4.46399 52.2L 27.6767 52.2C 28.1695 52.2 28.5695 52.6032 28.5695 53.1ZM 33.9262 9.9L 33.9262 5.4C 33.9262 4.9032 33.5262 4.5 33.0334 4.5C 32.5406 4.5 32.1406 4.9032 32.1406 5.4L 32.1406 9.9C 32.1406 12.3813 34.1432 14.4 36.6046 14.4L 44.6398 14.4L 44.6398 31.5C 44.6398 31.9968 45.0398 32.4 45.5326 32.4C 46.0254 32.4 46.4254 31.9968 46.4254 31.5L 46.4254 13.5C 46.4254 13.0032 46.0254 12.6 45.5326 12.6L 36.6046 12.6C 35.1279 12.6 33.9262 11.3886 33.9262 9.9ZM 20.5344 18L 29.4624 18C 29.9552 18 30.3552 17.5968 30.3552 17.1C 30.3552 16.6032 29.9552 16.2 29.4624 16.2L 20.5344 16.2C 20.0416 16.2 19.6416 16.6032 19.6416 17.1C 19.6416 17.5968 20.0416 18 20.5344 18ZM 26.784 22.5C 26.784 22.0032 26.384 21.6 25.8912 21.6L 20.5344 21.6C 20.0416 21.6 19.6416 22.0032 19.6416 22.5C 19.6416 22.9968 20.0416 23.4 20.5344 23.4L 25.8912 23.4C 26.384 23.4 26.784 22.9968 26.784 22.5ZM 36.6045 21.6L 29.4621 21.6C 28.9693 21.6 28.5693 22.0032 28.5693 22.5C 28.5693 22.9968 28.9693 23.4 29.4621 23.4L 36.6045 23.4C 37.0973 23.4 37.4973 22.9968 37.4973 22.5C 37.4973 22.0032 37.0973 21.6 36.6045 21.6ZM 20.5344 27C 20.0416 27 19.6416 27.4032 19.6416 27.9C 19.6416 28.3968 20.0416 28.8 20.5344 28.8L 22.32 28.8C 22.8128 28.8 23.2128 28.3968 23.2128 27.9C 23.2128 27.4032 22.8128 27 22.32 27L 20.5344 27ZM 31.2483 37.8C 30.7554 37.8 30.3555 38.2032 30.3555 38.7C 30.3555 39.1968 30.7554 39.6 31.2483 39.6L 33.0339 39.6C 33.5267 39.6 33.9267 39.1968 33.9267 38.7C 33.9267 38.2032 33.5267 37.8 33.0339 37.8L 31.2483 37.8ZM 25.8908 28.8L 34.8188 28.8C 35.3116 28.8 35.7116 28.3968 35.7116 27.9C 35.7116 27.4032 35.3116 27 34.8188 27L 25.8908 27C 25.398 27 24.998 27.4032 24.998 27.9C 24.998 28.3968 25.398 28.8 25.8908 28.8ZM 27.6768 32.4L 20.5344 32.4C 20.0416 32.4 19.6416 32.8032 19.6416 33.3C 19.6416 33.7968 20.0416 34.2 20.5344 34.2L 27.6768 34.2C 28.1696 34.2 28.5696 33.7968 28.5696 33.3C 28.5696 32.8032 28.1696 32.4 27.6768 32.4ZM 27.6768 37.8L 20.5344 37.8C 20.0416 37.8 19.6416 38.2032 19.6416 38.7C 19.6416 39.1968 20.0416 39.6 20.5344 39.6L 27.6768 39.6C 28.1696 39.6 28.5696 39.1968 28.5696 38.7C 28.5696 38.2032 28.1696 37.8 27.6768 37.8ZM 37.4978 33.3C 37.4978 32.8032 37.0979 32.4 36.605 32.4L 31.2483 32.4C 30.7554 32.4 30.3555 32.8032 30.3555 33.3C 30.3555 33.7968 30.7554 34.2 31.2483 34.2L 36.605 34.2C 37.0979 34.2 37.4978 33.7968 37.4978 33.3ZM 27.6768 43.2L 20.5344 43.2C 20.0416 43.2 19.6416 43.6032 19.6416 44.1C 19.6416 44.5968 20.0416 45 20.5344 45L 27.6768 45C 28.1696 45 28.5696 44.5968 28.5696 44.1C 28.5696 43.6032 28.1696 43.2 27.6768 43.2ZM 48.9337 41.9445L 37.2363 53.7363C 37.0693 53.9046 36.8416 54 36.605 54L 31.2483 54C 30.7554 54 30.3555 53.5968 30.3555 53.1L 30.3555 47.7C 30.3555 47.4615 30.4501 47.232 30.6171 47.0637L 42.3145 35.2719C 43.6849 33.8913 45.7759 33.8886 47.1481 35.2719L 48.9337 37.0719C 50.3559 38.5065 50.3559 40.5108 48.9337 41.9445ZM 45.2537 43.1082L 43.8377 41.6808L 36.0811 49.5L 37.497 50.9274L 45.2537 43.1082ZM 42.5759 40.4082L 41.1599 38.9808L 33.4033 46.8L 34.8193 48.2274L 42.5759 40.4082ZM 36.235 52.2L 32.1406 48.0726L 32.1406 52.2L 36.235 52.2ZM 47.6706 38.3445L 45.885 36.5445C 45.1762 35.8308 44.2816 35.8344 43.5763 36.5445L 42.4219 37.7082L 46.5162 41.8356L 47.6706 40.6719C 48.3929 39.9438 48.3929 39.0735 47.6706 38.3445ZM 16.0701 22.5C 16.0701 22.9968 15.6701 23.4 15.1773 23.4L 9.82053 23.4C 9.32771 23.4 8.92773 22.9968 8.92773 22.5L 8.92773 17.1C 8.92773 16.6032 9.32771 16.2 9.82053 16.2L 15.1773 16.2C 15.6701 16.2 16.0701 16.6032 16.0701 17.1L 16.0701 22.5ZM 10.7139 21.6L 14.2851 21.6L 14.2851 18L 10.7139 18L 10.7139 21.6ZM 8.92773 38.7C 8.92773 38.2032 9.32771 37.8 9.82053 37.8L 15.1773 37.8C 15.6701 37.8 16.0701 38.2032 16.0701 38.7L 16.0701 44.1C 16.0701 44.5968 15.6701 45 15.1773 45L 9.82053 45C 9.32771 45 8.92773 44.5968 8.92773 44.1L 8.92773 38.7ZM 10.7139 43.2L 14.2851 43.2L 14.2851 39.6L 10.7139 39.6L 10.7139 43.2ZM 10.9751 33.9363C 11.143 34.1055 11.3707 34.2 11.6063 34.2C 11.6358 34.2 11.6644 34.1991 11.6947 34.1955C 11.9608 34.1694 12.201 34.0236 12.3492 33.7995L 15.9203 28.3995C 16.1935 27.9855 16.0828 27.4266 15.673 27.1512C 15.2615 26.8749 14.7088 26.9874 14.4347 27.4005L 11.468 31.887L 10.452 30.8637C 10.1029 30.5118 9.53863 30.5118 9.18955 30.8637C 8.84046 31.2156 8.84046 31.7844 9.18955 32.1363L 10.9751 33.9363Z"/>
</defs>
</svg>
