<svg width="51" height="59" viewBox="0 0 51 59" version="1.1" xmlns="http://www.w3.org/2000/svg" xmlns:xlink="http://www.w3.org/1999/xlink">
<title>location-globe</title>
<desc>Created using Figma</desc>
<g id="Canvas" transform="translate(-10605 -669)">
<g id="location-globe">
<use xlink:href="#path0_fill" transform="translate(10605 669)" fill="#F4511E"/>
</g>
</g>
<defs>
<path id="path0_fill" fill-rule="evenodd" d="M 11.7695 7.86669C 11.7695 6.78207 12.6493 5.90002 13.7311 5.90002C 14.8129 5.90002 15.6926 6.78207 15.6926 7.86669C 15.6926 8.95131 14.8129 9.83336 13.7311 9.83336C 12.6493 9.83336 11.7695 8.95131 11.7695 7.86669ZM 13.7303 1.96667C 16.9757 1.96667 19.6149 4.61282 19.6149 7.86667C 19.6149 9.90021 17.8319 13.0528 16.8874 14.1354L 13.7303 18.0924L 10.5928 14.162C 9.64345 12.8856 7.8457 9.92774 7.8457 7.86667C 7.8457 4.61282 10.485 1.96667 13.7303 1.96667ZM 12.9649 20.2812C 13.1513 20.5143 13.4328 20.65 13.7309 20.65C 14.0291 20.65 14.3106 20.5143 14.4969 20.2812L 18.3915 15.398C 19.4684 14.1649 21.5771 10.5758 21.5771 7.86667C 21.5771 3.52918 18.0571 0 13.7309 0C 9.40475 0 5.88477 3.52918 5.88477 7.86667C 5.88477 11.034 8.70055 14.9073 9.04186 15.3646L 12.9649 20.2812ZM 51 33.4333C 51 47.5304 39.5603 59 25.5 59C 25.3146 59 25.1332 58.9469 24.9763 58.8486C 22.389 57.2113 16.3298 53.3783 18.6797 47.8805C 20.7521 43.0317 19.1466 41.5262 18.2845 40.7179C 18.1952 40.6343 18.1138 40.5576 18.0422 40.4858C 17.9167 40.36 17.7107 40.236 17.492 40.1053C 16.6466 39.5969 15.2323 38.7453 16.114 36.0893C 16.5073 34.9064 17.0781 34.3016 17.5362 33.8149C 18.154 33.16 18.6003 32.686 18.6003 30.4666C 18.6003 29.6151 18.2472 29.0447 17.5214 28.7232C 16.5377 28.2866 15.2255 28.4852 14.7096 28.9552C 14.5291 29.1195 14.5605 29.2109 14.5919 29.3083C 15.5854 32.2897 13.7926 36.049 10.0244 38.882C 8.6141 39.943 7.18512 39.8948 6.19846 38.7571C 4.82342 37.168 4.69985 33.7057 5.82479 31.9446C 5.10687 31.7243 3.69358 31.5296 2.03902 31.5355C 1.98704 32.1491 1.96154 32.7519 1.96154 33.4333C 1.96154 44.3159 9.31044 53.7382 19.8331 56.345C 20.3588 56.4748 20.6805 57.0078 20.5501 57.5349C 20.4402 57.9832 20.0391 58.2832 19.5987 58.2832C 19.5212 58.2832 19.4418 58.2733 19.3633 58.2537C 7.96287 55.4295 0 45.2235 0 33.4333C 0 32.3605 0.0529615 31.4686 0.177519 30.4519C 0.182423 30.4135 0.204 30.383 0.212827 30.3467C 0.2295 30.2788 0.248135 30.2159 0.277558 30.1549C 0.303058 30.1018 0.332481 30.0546 0.366808 30.0084C 0.408 29.9514 0.450173 29.9002 0.503135 29.852C 0.542365 29.8167 0.584538 29.7871 0.629654 29.7586C 0.689481 29.7193 0.750288 29.6868 0.818942 29.6623C 0.873865 29.6416 0.928788 29.6298 0.987635 29.62C 1.02883 29.6121 1.06315 29.5915 1.10631 29.5895C 2.11062 29.5413 7.17923 29.4017 7.97365 31.209C 8.2159 31.7587 8.07271 32.3753 7.59115 32.8581C 6.87225 33.5779 6.80458 36.4561 7.6804 37.468C 7.82065 37.6312 8.05702 37.9036 8.84752 37.3087C 11.833 35.0637 13.4307 32.0291 12.7314 29.9297C 12.4352 29.0378 12.6755 28.1519 13.3895 27.5009C 14.533 26.4605 16.6956 26.2068 18.3149 26.9247C 19.7429 27.5569 20.5618 28.8481 20.5618 30.4666C 20.5618 33.2475 19.8684 34.2043 18.9612 35.166C 18.5699 35.5819 18.2305 35.9408 17.9755 36.7108C 17.5901 37.8701 17.7833 37.9862 18.5012 38.4179C 18.7974 38.5958 19.1319 38.7984 19.429 39.0954L 19.6242 39.2812C 20.6638 40.2557 23.0971 42.537 20.4824 48.6553C 19.0259 52.0626 22.2948 54.7982 25.7825 57.0324C 38.6325 56.879 49.0385 46.3524 49.0385 33.4333C 49.0385 32.3458 48.9629 31.2454 48.8139 30.1647C 48.7393 29.6269 49.115 29.1303 49.6514 29.0555C 50.1801 28.9808 50.6822 29.3564 50.7568 29.8953C 50.9186 31.0655 51 32.2553 51 33.4333ZM 23.5184 8.90999C 23.4968 8.36719 23.9175 7.90896 24.4589 7.88732C 26.904 7.78997 29.3853 8.04269 31.7509 8.64056C 32.2639 8.77036 32.5817 9.28562 32.4689 9.80384C 32.2149 10.9701 32.6434 11.6535 33.0593 12.3133C 33.3418 12.7647 33.635 13.2308 33.635 13.8031C 33.635 17.8308 32.7356 19.8722 30.9624 19.8722C 30.2072 19.8722 28.1859 20.8329 27.5121 22.0935C 27.2502 22.5832 27.262 22.9962 27.5513 23.4309C 28.0848 24.2323 28.537 25.1104 28.9361 25.8853C 29.3677 26.7231 30.0905 28.1263 30.4544 28.2118C 31.087 27.9011 31.8804 26.3219 32.4061 25.2776C 33.3015 23.4977 33.9842 22.0798 35.2337 22.1457C 37.6248 22.2519 38.5614 24.2854 39.245 25.7702C 39.5716 26.4792 39.9423 27.2826 40.3111 27.4675C 41.0075 27.8126 44.9168 27.4871 47.968 26.4094C 45.8936 19.7473 40.8868 14.2426 34.4147 11.5847C 33.9135 11.3791 33.6733 10.8049 33.8782 10.3024C 34.0832 9.7999 34.655 9.55899 35.1581 9.76549C 42.4668 12.7656 48.0582 19.1131 50.1168 26.7437C 50.1286 26.787 50.1198 26.8283 50.1247 26.8716C 50.1345 26.9384 50.1423 27.0014 50.1384 27.0672C 50.1335 27.1302 50.1188 27.1882 50.1021 27.2492C 50.0864 27.3101 50.0707 27.3691 50.0423 27.4262C 50.0148 27.4822 49.9795 27.5314 49.9413 27.5815C 49.904 27.6317 49.8677 27.6789 49.8206 27.7221C 49.7716 27.7664 49.7167 27.7988 49.6588 27.8333C 49.6215 27.8549 49.5941 27.8883 49.5539 27.905C 46.5419 29.1873 41.0918 30.0576 39.4343 29.2266C 38.4496 28.733 37.9484 27.6464 37.4639 26.5943C 36.8058 25.1645 36.3194 24.2618 35.3239 24.1261C 35.0199 24.4496 34.5069 25.4683 34.1578 26.1626C 33.3653 27.7379 32.5454 29.3682 31.4018 29.9415C 31.0428 30.1215 30.7113 30.2021 30.4034 30.2021C 28.9528 30.2021 28.027 28.4065 27.1933 26.788C 26.799 26.0229 26.392 25.2323 25.9193 24.5214C 25.2298 23.483 25.1808 22.2912 25.783 21.1653C 26.7637 19.3294 29.3726 17.9055 30.9624 17.9055C 30.9546 17.9036 31.6735 17.3303 31.6735 13.8031C 31.6558 13.7706 31.5067 13.5346 31.3989 13.3615C 31.0065 12.7381 30.3975 11.7676 30.4328 10.3525C 28.5085 9.94052 26.5078 9.77237 24.5384 9.85301C 23.9627 9.8707 23.5399 9.45181 23.5184 8.90999ZM 0.743355 27.2855C 1.52209 23.7839 4.16232 18.7905 6.39455 16.5987C 6.77999 16.2191 7.40082 16.225 7.78136 16.6134C 8.15993 17.0018 8.15307 17.6243 7.76664 18.0038C 5.79137 19.944 3.35612 24.5715 2.65782 27.7133C 2.55582 28.1705 2.15076 28.4822 1.70157 28.4822C 1.63095 28.4822 1.55936 28.4754 1.48776 28.4586C 0.959125 28.3406 0.625663 27.8155 0.743355 27.2855ZM 25.0398 50.8265C 25.3782 50.266 25.8558 49.8707 26.1147 49.7301C 26.3933 50.0615 26.6345 50.4765 26.7571 50.8452C 26.866 51.1707 26.8758 51.4411 26.7836 51.5335C 26.3482 51.9701 25.2163 51.9583 24.7927 51.5444C 24.7789 51.5021 24.7799 51.2562 25.0398 50.8265ZM 25.785 53.8493C 26.7148 53.8493 27.5837 53.512 28.1702 52.925C 28.8215 52.272 28.9804 51.3123 28.6175 50.2237C 28.3733 49.4882 27.8897 48.7104 27.3238 48.143C 27.0433 47.8628 26.6628 47.7084 26.2499 47.7084C 25.0259 47.7084 23.5901 49.1204 23.0663 50.388C 22.6573 51.3782 22.779 52.3015 23.4008 52.925C 23.9863 53.512 24.8552 53.8493 25.785 53.8493ZM 41.8944 36.0382C 41.8483 36.2319 41.3599 36.701 41.0352 37.0127C 40.2948 37.7226 39.3738 38.6067 38.9423 39.9047C 38.4578 41.361 36.8218 41.4337 36.4992 41.4337C 35.9274 41.4337 35.5684 41.2823 35.4939 41.2154C 34.5347 40.2537 32.8232 39.3953 31.0108 38.4877C 31.0069 38.4857 31.0039 38.4847 31 38.4828C 31.1844 38.408 31.5257 38.4011 31.8258 38.5516C 32.1426 38.7109 32.4672 38.7915 32.7919 38.7915C 33.8776 38.7915 34.5631 37.9518 35.1673 37.2113C 35.6096 36.6705 36.0647 36.1119 36.4913 36.1119C 36.8395 36.1119 37.2446 35.9959 37.8036 35.8356C 38.546 35.6232 39.4699 35.3587 40.3114 35.3587C 40.944 35.3587 41.403 35.5111 41.7149 35.8238C 41.8512 35.9615 41.8875 36.0382 41.8944 36.0382ZM 37.2657 33.9447C 36.9822 34.0263 36.5948 34.1374 36.4919 34.1453C 35.1364 34.1453 34.2773 35.1974 33.6506 35.9654C 33.4113 36.2594 32.9836 36.8101 32.7031 36.7924C 32.2598 36.5702 31.794 36.4581 31.3183 36.4581C 30.162 36.4581 29.1606 37.1474 28.937 38.0992C 28.7791 38.7679 29.0115 39.6834 30.1345 40.2468C 31.7273 41.0453 33.374 41.8703 34.1066 42.6049C 34.6107 43.1103 35.4826 43.4004 36.4997 43.4004C 38.0444 43.4004 40.0981 42.6481 40.8033 40.5261C 41.0819 39.6903 41.7478 39.0511 42.3922 38.4326C 43.1395 37.7148 43.8466 37.0382 43.8565 36.0647C 43.8633 35.4905 43.6093 34.9418 43.1032 34.4334C 42.4137 33.7421 41.4751 33.392 40.312 33.392C 39.1958 33.392 38.0797 33.7116 37.2657 33.9447Z"/>
</defs>
</svg>
