<svg xmlns="http://www.w3.org/2000/svg" width="45" height="45" viewBox="0 0 45 45">
    <g fill="#FFF" fill-rule="nonzero">
        <path d="M43.3 11.266l-.013-.05c-1.053-4.101-5.801-8.501-10.162-9.417l-.05-.01a58.606 58.606 0 0 0-21.256 0l-.051.01c-4.36.916-9.108 5.316-10.163 9.416l-.011.05a38.62 38.62 0 0 0 0 17.261l.011.05c1.01 3.926 5.405 8.124 9.603 9.278v4.577c0 1.657 2.096 2.47 3.289 1.275l4.816-4.82c1.044.056 2.09.087 3.134.087 3.55 0 7.103-.323 10.629-.971l.049-.01c4.36-.915 9.11-5.315 10.162-9.416l.013-.05a38.62 38.62 0 0 0 0-17.26zm-3.81 16.43c-.704 2.675-4.31 6-7.174 6.615-3.75.687-7.53.98-11.307.88a.273.273 0 0 0-.2.077l-3.516 3.477-3.74 3.696c-.273.274-.753.088-.753-.291v-7.583a.264.264 0 0 0-.221-.256h-.002c-2.865-.615-6.47-3.94-7.174-6.616a35.046 35.046 0 0 1 0-15.6c.705-2.674 4.309-6 7.174-6.615 6.55-1.2 13.19-1.2 19.739 0 2.866.615 6.47 3.94 7.174 6.616a35.01 35.01 0 0 1 0 15.6z"/>
        <path d="M28.679 31.196c-.44-.13-.86-.216-1.25-.371-4.04-1.614-7.756-3.696-10.7-6.887-1.675-1.815-2.986-3.864-4.094-6.032-.525-1.029-.968-2.097-1.419-3.159-.412-.968.195-1.968.833-2.697.599-.685 1.37-1.209 2.204-1.595.651-.301 1.294-.127 1.77.404 1.028 1.15 1.972 2.358 2.737 3.69.47.82.342 1.822-.51 2.38-.208.135-.397.294-.59.447-.17.135-.328.27-.444.452-.212.332-.223.724-.086 1.086 1.051 2.782 2.823 4.945 5.731 6.11.465.187.933.404 1.469.344.898-.101 1.188-1.05 1.817-1.545.615-.484 1.401-.49 2.063-.087a42.97 42.97 0 0 1 1.943 1.275c.627.43 1.251.851 1.829 1.341.556.472.747 1.09.434 1.73-.573 1.171-1.406 2.146-2.61 2.768-.339.175-.744.232-1.127.346-.44-.13.383-.114 0 0zM22.458 9.116c5.283.142 9.623 3.519 10.552 8.549.159.857.215 1.733.286 2.603.03.366-.186.713-.596.718-.423.005-.614-.336-.641-.702-.055-.724-.093-1.451-.196-2.17-.547-3.79-3.685-6.925-7.603-7.598-.589-.1-1.192-.127-1.79-.188-.377-.038-.871-.06-.955-.512-.07-.379.262-.68.637-.7.101-.005.204 0 .306 0 5.283.142-.102 0 0 0z"/>
        <path d="M30.487 19.139c-.009.063-.013.213-.052.353-.14.511-.944.575-1.13.06a1.484 1.484 0 0 1-.063-.492c-.002-1.078-.245-2.154-.81-3.092a5.89 5.89 0 0 0-2.505-2.264 7.412 7.412 0 0 0-1.997-.59c-.301-.048-.605-.077-.908-.118-.367-.049-.562-.274-.545-.622.016-.326.264-.56.633-.54 1.212.066 2.383.319 3.461.868 2.192 1.118 3.444 2.883 3.81 5.239.016.106.043.212.051.32.02.264.034.529.055.878-.009.063-.021-.35 0 0z"/>
        <path d="M27.2 19.016c-.441.007-.678-.228-.723-.619-.032-.272-.057-.548-.124-.812-.133-.522-.421-1.005-.876-1.324a2.325 2.325 0 0 0-.714-.332c-.325-.09-.661-.065-.985-.142-.351-.083-.545-.357-.49-.674.05-.289.342-.514.67-.491 2.048.142 3.512 1.162 3.72 3.484.016.164.033.337-.005.494a.519.519 0 0 1-.472.416c-.442.007.201-.014 0 0z"/>
    </g>
</svg>
