<svg xmlns="http://www.w3.org/2000/svg" width="45" height="45" viewBox="0 0 45 45">
    <g fill="#FFF" fill-rule="nonzero">
        <path d="M.88 44.31l3.07-10.836A21.582 21.582 0 0 1 .936 22.453C.936 10.458 10.756.699 22.828.699c12.07 0 21.891 9.759 21.891 21.754 0 11.995-9.82 21.754-21.891 21.754-3.762 0-7.445-.957-10.703-2.774L.88 44.31zm11.82-6.834l.67.406a18.227 18.227 0 0 0 9.458 2.634c10.023 0 18.177-8.103 18.177-18.063 0-9.96-8.154-18.064-18.177-18.064-10.024 0-18.179 8.104-18.179 18.064 0 3.47.993 6.84 2.87 9.746l.452.698-1.768 6.24 6.497-1.661z"/>
        <path d="M16.762 12.673l-1.422-.078a1.725 1.725 0 0 0-1.222.416c-.689.596-1.791 1.747-2.13 3.247-.504 2.236.276 4.975 2.295 7.714 2.019 2.738 5.781 7.12 12.434 8.992 2.144.603 3.83.196 5.132-.632a4.565 4.565 0 0 0 1.997-2.898l.227-1.055a.732.732 0 0 0-.412-.819l-4.805-2.203a.74.74 0 0 0-.891.218l-1.886 2.433a.541.541 0 0 1-.607.18c-1.292-.452-5.619-2.255-7.993-6.805a.54.54 0 0 1 .069-.605l1.802-2.074a.73.73 0 0 0 .12-.767l-2.07-4.82a.737.737 0 0 0-.638-.444z"/>
    </g>
</svg>
