<svg width="340" height="238" viewBox="0 0 340 238" version="1.1" xmlns="http://www.w3.org/2000/svg" xmlns:xlink="http://www.w3.org/1999/xlink">
<title>BeSmartre_new_logo Copy</title>
<desc>Created using Figma</desc>
<g id="Canvas" transform="translate(-21286 -4070)">
<g id="BeSmartre_new_logo Copy">
<g id="Group 3">
<mask id="mask0_outline" mask-type="alpha">
<g id="Clip 2">
<use xlink:href="#path0_fill" transform="translate(21286 4070.2)" fill="#FFFFFF"/>
</g>
</mask>
<g id="Fill 1" mask="url(#mask0_outline)">
<use xlink:href="#path1_fill" transform="translate(21285.9 4070.2)" fill="#0A0B09"/>
</g>
</g>
<g id="Fill 4">
<use xlink:href="#path2_fill" transform="translate(21353.8 4173.43)" fill="#F8F8F8"/>
</g>
<g id="Fill 5">
<use xlink:href="#path3_fill" transform="translate(21300.4 4098.92)" fill="#DF542F"/>
</g>
<g id="Fill 6">
<use xlink:href="#path4_fill" transform="translate(21356 4132.28)" fill="#0B0B09"/>
</g>
<g id="Fill 7">
<use xlink:href="#path5_fill" transform="translate(21378.2 4163.42)" fill="#FFFFFE"/>
</g>
<g id="Fill 8">
<use xlink:href="#path6_fill" transform="translate(21378.2 4163.42)" fill="#35A0CD"/>
</g>
<g id="Fill 9">
<use xlink:href="#path7_fill" transform="translate(21377.1 4160.08)" fill="#FFFFFE"/>
</g>
<g id="Fill 10">
<use xlink:href="#path8_fill" transform="translate(21300.4 4095.58)" fill="#E78F76"/>
</g>
<g id="Fill 11">
<use xlink:href="#path9_fill" transform="translate(21373.8 4083.35)" fill="#DF542F"/>
</g>
</g>
</g>
<defs>
<path id="path0_fill" fill-rule="evenodd" d="M 169.93 236.989L 0 236.989L 0 0L 169.93 0L 339.861 0L 339.861 236.989L 169.93 236.989Z"/>
<path id="path1_fill" fill-rule="evenodd" d="M 10.5518 0C 10.5518 0 -3.96773 50.4351 1.0572 76.577C 6.08644 102.717 21.4421 107.471 24.7949 108.263C 24.7949 108.263 -1.17442 127.803 6.08644 174.54L 10.8327 170.052C 10.8327 170.052 11.1114 176.655 9.71579 180.35C 8.31806 184.048 7.06291 191.308 8.87758 194.213C 8.87758 194.213 10.7527 184.838 12.3968 183.255C 12.3968 183.255 15.8576 187.876 16.5575 192.627C 17.2553 197.381 18.5105 207.019 21.5825 207.944C 21.5825 207.944 20.7464 195.269 24.7949 191.704C 24.7949 191.704 46.854 226.428 93.0699 236.989C 93.0699 236.989 85.6686 227.218 85.9494 221.938C 85.9494 221.938 118.901 242.227 162.276 234.658C 185.43 230.618 198.207 214.59 204.767 197.25C 204.767 197.25 250.983 203.851 286.866 189.988C 322.749 176.126 349.818 144.962 336.571 122.259C 334.337 118.43 326.519 120.937 320.654 123.445C 314.791 125.954 308.087 131.237 300.688 131.367C 293.289 131.5 247.911 129.519 242.048 128.463C 236.183 127.406 219.847 126.35 216.217 114.469C 212.586 102.586 214.681 95.7203 205.327 88.3273C 195.973 80.9344 166.51 57.1682 136.492 50.8314C 136.492 50.8314 109.545 13.9953 94.7463 3.56472C 94.7463 3.56472 84.5517 10.9577 80.5033 43.9655L 76.5952 46.8704C 76.5952 46.8704 34.1491 22.0481 10.5518 0Z"/>
<path id="path2_fill" fill-rule="evenodd" d="M 66.2107 33.3544C 66.2107 33.3544 56.1616 23.8449 40.9044 27.5254C 25.6472 31.2079 18.7636 49.2666 24.1595 58.7333C 24.1595 58.7333 23.4146 48.5647 37.5554 41.0267C 37.5554 41.0267 75.1414 79.4227 126.682 89.2394C 126.682 89.2394 117.778 112.842 94.4925 117.117C 80.1659 119.745 66.9967 115.188 52.0699 110.456C 37.1409 105.721 9.45723 95.6685 1.27154 68.3323C -6.91415 40.9962 27.1004 26.321 27.1004 26.321C 27.1004 26.321 18.0294 26.2538 13.1798 27.7004C 11.9641 26.7218 47.7535 5.04568 97.1225 7.25317C 97.1225 7.25317 94.052 4.14234 94.8876 1.59916C 94.8876 1.59916 103.332 3.66626 103.89 5.90833C 103.89 5.90833 103.652 1.57271 102.68 0C 102.68 0 122.543 20.9518 158.965 28.3148C 195.39 35.6778 232.371 35.5252 235.582 35.1407C 235.582 35.1407 238.79 36.8619 239.628 39.8853C 239.628 39.8853 214.894 50.3673 175.015 45.5413C 130.817 40.1905 86.5379 19.7677 86.5379 19.7677C 86.5379 19.7677 144.01 48.5504 176.386 52.233C 208.762 55.9135 229.441 49.0896 243.534 44.4895C 243.534 44.4895 248.837 47.9075 249.954 52.5097C 251.07 57.1118 231.812 72.2326 215.624 77.4939C 199.436 82.7532 158.128 92.22 114.31 78.8082C 70.4904 65.3965 47.1857 36.7297 47.1857 36.7297C 47.1857 36.7297 49.7897 30.2436 66.2107 33.3544Z"/>
<path id="path3_fill" fill-rule="evenodd" d="M 188.094 73.2911C 188.094 73.2911 184.446 60.222 152.979 44.1505C 121.511 28.079 102.92 21.5455 87.2287 22.605C 71.54 23.6646 55.2899 34.9671 53.4214 36.7337C 53.4214 36.7337 60.1452 27.0215 45.7635 18.0143C 31.3796 9.00717 19.2392 0 19.2392 0L 41.2788 49.979L 38.6648 47.3312C 38.6648 47.3312 38.2919 63.9314 20.9212 82.2983C 3.55045 100.665 0.561396 110.556 0 123.094C 0 123.094 7.47155 113.007 10.0878 111.515C 10.0878 111.515 4.48249 132.101 6.07131 143.139L 10.181 139.43C 10.181 139.43 10.181 160.447 25.8697 169.982C 25.8697 169.982 24.6559 163.625 27.27 161.065C 27.27 161.065 38.3851 190.38 65.0959 194.62C 65.0959 194.62 61.7318 186.849 56.8765 182.611C 56.8765 182.611 92.2943 197.279 118.611 199.742C 160.576 203.669 172.962 180.314 172.962 180.314C 172.962 180.314 161.021 192.206 134.113 189.675C 116.274 187.997 94.5594 182.191 75.4828 168.482C 58.2768 156.12 47.0705 138.989 61.2658 120.622C 67.2396 112.892 83.1212 102.299 83.1212 102.299C 83.1212 102.299 74.7155 102.079 67.9896 104.02C 67.9896 104.02 90.8724 86.4483 153.725 84.2411C 153.725 84.2411 148.961 80.003 150.27 78.2364C 150.27 78.2364 157.822 80.2448 159.224 82.3639C 159.224 82.3639 159.703 78.5909 157.835 76.1173C 157.835 76.1173 183.984 86.5385 194.444 88.922C 194.444 88.922 179.126 70.8195 171.843 62.8719C 171.843 62.8719 179.874 65.8743 188.094 73.2911Z"/>
<path id="path4_fill" fill-rule="evenodd" d="M 76.1415 16.4272C 76.1415 16.4272 70.1418 15.8104 63.1289 11.5868C 56.1138 7.36315 49.3773 2.34709 43.4696 1.11554C 37.562 -0.118055 30.9176 -1.87654 22.1504 5.5148C 22.1504 5.5148 33.8714 7.36315 40.7 7.00982C 40.7 7.00982 15.8743 22.587 0 24.4353L 19.9355 28.3955C 19.9355 28.3955 16.6133 38.7789 18.3676 42.4756C 20.1198 46.1702 24.5494 50.7472 38.6716 48.1942C 52.7916 45.6413 65.9884 35.699 85.5556 37.723C 85.5556 37.723 72.1724 30.5951 58.605 28.4833C 45.0376 26.3695 30.1807 23.1139 30.1807 23.1139L 27.5953 20.3874C 27.5953 20.3874 34.5182 13.7864 37.3778 12.1137C 40.2395 10.443 46.6077 6.65853 54.8222 12.9061C 63.0368 19.1538 69.3107 25.5791 76.7884 26.9862C 76.7884 26.9862 69.497 21.2656 67.0037 17.8344C 67.0037 17.8344 68.5738 15.7226 76.1415 16.4272Z"/>
<path id="path5_fill" fill-rule="evenodd" d="M 57.7778 5.36705C 57.7778 5.36705 28.9833 -1.42611 11.8737 0.272728C 11.8737 0.272728 11.8737 12.7229 0 12.158C 0 12.158 5.42257 15.7418 28.0481 10.4592C 50.6735 5.17659 57.7778 5.36705 57.7778 5.36705Z"/>
<path id="path6_fill" fill-rule="evenodd" d="M 22.1708 0.0595216C 19.5006 -0.0658353 16.2773 -0.00531819 12.4035 0.357785C 12.4035 0.357785 12.4035 12.6492 0 12.0916C 0 12.0916 4.52211 14.588 17.5898 12.5369C 19.0246 12.3121 21.4364 9.76387 21.9963 6.6775C 22.3658 4.64153 22.1708 0.0595216 22.1708 0.0595216Z"/>
<path id="path7_fill" fill-rule="evenodd" d="M 0 2.22547C 0 3.45324 0.99625 4.4486 2.22222 4.4486C 3.44819 4.4486 4.44444 3.45324 4.44444 2.22547C 4.44444 0.995359 3.44819 0 2.22222 0C 0.99625 0 0 0.995359 0 2.22547Z"/>
<path id="path8_fill" fill-rule="evenodd" d="M 38.7659 52.1194C 38.7659 52.1194 12.3261 18.4222 4.30585 0C 4.30585 0 -4.49155 40.2525 3.0633 63.9C 10.6182 87.5474 33.6096 64.6297 35.2894 62.3274C 36.9671 60.0252 39.4738 54.1565 38.7659 52.1194Z"/>
<path id="path9_fill" fill-rule="evenodd" d="M 32.2222 32.2523C 32.2222 32.2523 13.2677 4.8057 5.64926 0C 5.64926 0 -1.13469 12.1491 0.165602 28.8423C 0.165602 28.8423 22.6522 28.5806 32.2222 32.2523Z"/>
</defs>
</svg>
