<svg width="51" height="52" viewBox="0 0 51 52" version="1.1" xmlns="http://www.w3.org/2000/svg" xmlns:xlink="http://www.w3.org/1999/xlink">
<title>Group 15</title>
<desc>Created using Figma</desc>
<g id="Canvas" transform="translate(-10606 -82)">
<g id="Group 15">
<g id="money-give">
<use xlink:href="#path0_fill" transform="translate(10606 82.7377)" fill="#F4511E"/>
</g>
</g>
</g>
<defs>
<path id="path0_fill" fill-rule="evenodd" d="M 20.3994 15.2995C 20.3994 22.7979 26.5005 28.899 33.999 28.899C 41.4974 28.899 47.5985 22.7979 47.5985 15.2995C 47.5985 7.80104 41.4974 1.69994 33.999 1.69994C 26.5005 1.69994 20.3994 7.80104 20.3994 15.2995ZM 18.6992 15.2995C 18.6992 6.86352 25.5627 0 33.9987 0C 42.4347 0 49.2982 6.86352 49.2982 15.2995C 49.2982 23.7355 42.4347 30.599 33.9987 30.599C 25.5627 30.599 18.6992 23.7355 18.6992 15.2995ZM 2.97515 46.7484C 2.27223 46.7484 1.7002 46.1764 1.7002 45.4735C 1.7002 44.7706 2.27223 44.1985 2.97515 44.1985C 3.67808 44.1985 4.25011 44.7706 4.25011 45.4735C 4.25011 46.1764 3.67808 46.7484 2.97515 46.7484ZM 23.7988 15.2995C 23.7988 20.9238 28.3742 25.4992 33.9985 25.4992C 39.6227 25.4992 44.1982 20.9238 44.1982 15.2995C 44.1982 9.67523 39.6227 5.09983 33.9985 5.09983C 28.3742 5.09983 23.7988 9.67523 23.7988 15.2995ZM 22.0996 15.2995C 22.0996 8.73771 27.4374 3.39989 33.9992 3.39989C 40.561 3.39989 45.8988 8.73771 45.8988 15.2995C 45.8988 21.8613 40.561 27.1991 33.9992 27.1991C 27.4374 27.1991 22.0996 21.8613 22.0996 15.2995ZM 11.0492 32.2989L 17.849 32.2989C 18.8409 32.2989 20.5264 33.5637 22.0138 34.6788C 23.8787 36.0779 25.6407 37.3988 27.1987 37.3988L 32.2985 37.3988C 33.5896 37.3988 34.2305 37.9844 34.2475 37.9997C 34.4132 38.1654 34.6308 38.2487 34.8484 38.2487C 35.066 38.2487 35.2836 38.1654 35.4493 37.9997C 35.7817 37.6673 35.7817 37.1302 35.4493 36.7978C 35.3371 36.6856 34.2934 35.6988 32.2985 35.6988L 27.1987 35.6988C 26.2067 35.6988 24.5212 34.4341 23.0338 33.3189C 21.169 31.9198 19.407 30.599 17.849 30.599L 11.0492 30.599C 10.5792 30.599 10.1992 30.9798 10.1992 31.449C 10.1992 31.9181 10.5792 32.2989 11.0492 32.2989ZM 50.5423 35.6988C 49.6048 34.0745 47.5181 33.5186 45.9507 34.4264L 36.1684 39.1879C 34.6478 39.9487 33.1128 39.9487 29.7486 39.9487C 26.46 39.9487 21.4392 39.1182 21.3882 39.1106C 20.9259 39.0332 20.4873 39.346 20.4108 39.8084C 20.3334 40.2717 20.6462 40.7102 21.1095 40.7867C 21.3202 40.8224 26.3181 41.6486 29.7486 41.6486C 33.2776 41.6486 35.049 41.6486 36.9198 40.7128L 46.748 35.9266C 47.1407 35.6997 47.598 35.6393 48.0383 35.7566C 48.476 35.8747 48.8432 36.1561 49.0693 36.5488C 49.2971 36.9423 49.3574 37.4004 49.2401 37.839C 49.1228 38.2776 48.8415 38.644 48.4241 38.8853L 36.9317 46.0379C 36.9079 46.054 34.4557 47.5984 28.8986 47.5984C 24.0801 47.5984 16.6361 43.4964 16.529 43.4378C 16.4516 43.4004 14.6089 42.4986 11.0492 42.4986C 10.5792 42.4986 10.1992 42.8794 10.1992 43.3485C 10.1992 43.8177 10.5792 44.1985 11.0492 44.1985C 14.1405 44.1985 15.7334 44.9422 15.7368 44.9422L 15.7368 44.9414C 16.0581 45.1199 23.6398 49.2984 28.8986 49.2984C 35.0354 49.2984 37.757 47.5304 37.8471 47.4701L 49.2979 40.343C 50.0841 39.8892 50.6468 39.1556 50.8814 38.2793C 51.1177 37.4013 50.9962 36.485 50.5423 35.6988ZM 8.49972 29.749L 8.49972 48.4484C 8.49972 49.8542 7.35565 50.9983 5.9498 50.9983L 0.849972 50.9983C 0.379937 50.9983 0 50.6175 0 50.1483C 0 49.6791 0.379937 49.2984 0.849972 49.2984L 5.9498 49.2984C 6.41899 49.2984 6.79977 48.9167 6.79977 48.4484L 6.79977 29.749C 6.79977 29.2807 6.41899 28.899 5.9498 28.899L 0.849972 28.899C 0.379937 28.899 0 28.5183 0 28.0491C 0 27.5799 0.379937 27.1991 0.849972 27.1991L 5.9498 27.1991C 7.35565 27.1991 8.49972 28.3432 8.49972 29.749ZM 37.2772 18.7603L 33.8752 18.7603L 33.8752 21.2623L 31.9312 21.2623L 31.9312 18.7603L 30.3652 18.7603L 30.3652 17.2123L 31.9312 17.2123L 31.9312 15.9163L 30.3652 15.9163L 30.3652 14.2423L 31.9312 14.2423L 31.9312 7.9423L 35.1532 7.9423C 38.3392 7.9423 39.8512 9.5443 39.8512 11.9563C 39.8512 14.3863 38.3392 15.9163 35.1532 15.9163L 33.8752 15.9163L 33.8752 17.2123L 37.2772 17.2123L 37.2772 18.7603ZM 33.875 9.7243L 33.875 14.2423L 35.153 14.2423C 37.367 14.2423 37.907 12.9823 37.907 11.9203C 37.907 10.8583 37.367 9.7243 35.153 9.7243L 33.875 9.7243Z"/>
</defs>
</svg>
