<svg width="51" height="51" viewBox="0 0 51 51" version="1.1" xmlns="http://www.w3.org/2000/svg" xmlns:xlink="http://www.w3.org/1999/xlink">
<title>presentation-man</title>
<desc>Created using Figma</desc>
<g id="Canvas" transform="translate(-10606 -417)">
<g id="presentation-man">
<use xlink:href="#path0_fill" transform="translate(10606 417)" fill="#F4511E"/>
</g>
</g>
<defs>
<path id="path0_fill" fill-rule="evenodd" d="M 51 2.55L 51 5.95C 51 6.4192 50.6192 6.8 50.15 6.8L 49.3 6.8L 49.3 26.35C 49.3 26.8192 48.9192 27.2 48.45 27.2C 47.9808 27.2 47.6 26.8192 47.6 26.35L 47.6 5.95C 47.6 5.4808 47.9808 5.1 48.45 5.1L 49.3 5.1L 49.3 3.4L 1.7 3.4L 1.7 5.1L 45.05 5.1C 45.5192 5.1 45.9 5.4808 45.9 5.95C 45.9 6.4192 45.5192 6.8 45.05 6.8L 0.85 6.8C 0.3808 6.8 0 6.4192 0 5.95L 0 2.55C 0 2.0808 0.3808 1.7 0.85 1.7L 24.65 1.7L 24.65 0.85C 24.65 0.3808 25.0308 0 25.5 0C 25.9692 0 26.35 0.3808 26.35 0.85L 26.35 1.7L 50.15 1.7C 50.6192 1.7 51 2.0808 51 2.55ZM 11.0502 13.6L 17.8502 13.6C 18.3194 13.6 18.7002 13.2192 18.7002 12.75C 18.7002 12.2808 18.3194 11.9 17.8502 11.9L 11.0502 11.9C 10.581 11.9 10.2002 12.2808 10.2002 12.75C 10.2002 13.2192 10.581 13.6 11.0502 13.6ZM 11.0502 18.7L 26.3502 18.7C 26.8194 18.7 27.2002 18.3192 27.2002 17.85C 27.2002 17.3808 26.8194 17 26.3502 17L 11.0502 17C 10.581 17 10.2002 17.3808 10.2002 17.85C 10.2002 18.3192 10.581 18.7 11.0502 18.7ZM 24.6504 13.6C 25.1196 13.6 25.5004 13.2192 25.5004 12.75C 25.5004 12.2808 25.1196 11.9 24.6504 11.9L 21.2504 11.9C 20.7812 11.9 20.4004 12.2808 20.4004 12.75C 20.4004 13.2192 20.7812 13.6 21.2504 13.6L 24.6504 13.6ZM 11.0502 23.8L 13.6002 23.8C 14.0694 23.8 14.4502 23.4192 14.4502 22.95C 14.4502 22.4808 14.0694 22.1 13.6002 22.1L 11.0502 22.1C 10.581 22.1 10.2002 22.4808 10.2002 22.95C 10.2002 23.4192 10.581 23.8 11.0502 23.8ZM 26.35 22.1L 17.85 22.1C 17.3808 22.1 17 22.4808 17 22.95C 17 23.4192 17.3808 23.8 17.85 23.8L 26.35 23.8C 26.8192 23.8 27.2 23.4192 27.2 22.95C 27.2 22.4808 26.8192 22.1 26.35 22.1ZM 41.7054 27.2111C 41.2617 27.2102 40.8681 27.5069 40.8078 27.9455L 38.2578 46.6353C 38.1949 47.1002 38.5196 47.5286 38.9854 47.5924C 39.0245 47.5975 39.0627 47.6 39.1018 47.6C 39.52 47.6 39.8838 47.2915 39.9425 46.8648L 42.3913 28.9187C 45.3264 28.9927 47.3341 29.5503 48.3643 30.5788C 48.9941 31.2069 49.3001 32.0484 49.3001 33.15L 49.3001 46.75C 49.3001 47.2192 49.6809 47.6 50.1501 47.6C 50.6193 47.6 51.0001 47.2192 51.0001 46.75L 51.0001 33.15C 51.0001 31.5954 50.5173 30.3255 49.5653 29.376C 48.1067 27.9191 45.5355 27.2111 41.7054 27.2111ZM 33.9925 27.9353L 36.5425 46.6353C 36.6054 47.1002 36.2799 47.5286 35.8149 47.5924C 35.3517 47.6578 34.9207 47.3306 34.8578 46.8648L 32.4081 28.9L 18.7002 28.9L 18.7002 32.3L 28.0502 32.3C 28.4871 32.3 28.8526 32.6307 28.8959 33.065L 30.5959 50.065C 30.6427 50.5325 30.3018 50.949 29.8352 50.9958C 29.8063 50.9983 29.7774 51 29.7493 51C 29.3175 51 28.9486 50.6728 28.9044 50.235L 27.2809 34L 16.1502 34C 12.1883 34 10.2002 30.1852 10.2002 28.05C 10.2002 27.5808 10.581 27.2 11.0502 27.2L 33.1502 27.2C 33.5752 27.2 33.9347 27.5145 33.9925 27.9353ZM 16.9998 28.9L 12.0469 28.9C 12.4625 30.2897 13.7715 32.3 16.1498 32.3L 16.9998 32.3L 16.9998 28.9ZM 39.1002 28.9C 39.1002 27.9625 38.3377 27.2 37.4002 27.2C 36.4626 27.2 35.7002 27.9625 35.7002 28.9C 35.7002 29.5265 36.0444 30.0688 36.5502 30.3637L 36.5502 36.55C 36.5502 37.0192 36.931 37.4 37.4002 37.4C 37.8694 37.4 38.2502 37.0192 38.2502 36.55L 38.2502 30.3637C 38.7559 30.0688 39.1002 29.5265 39.1002 28.9ZM 44.2 13.6L 44.2 13.8286C 44.7075 14.1228 45.05 14.6719 45.05 15.3L 45.05 17C 45.05 17.6409 44.693 18.201 44.1669 18.4901C 44.0053 20.1238 43.2948 21.5619 43.2607 21.6299C 42.4898 23.171 41.3253 25.5 37.4 25.5C 33.4747 25.5 32.3102 23.171 31.5401 21.6299C 31.5052 21.5619 30.7946 20.1238 30.6332 18.4901C 30.107 18.201 29.75 17.6409 29.75 17L 29.75 15.3C 29.75 14.6719 30.0926 14.1228 30.6 13.8286L 30.6 13.6C 30.6 10.7873 32.8873 8.5 35.7 8.5L 39.1 8.5C 41.9127 8.5 44.2 10.7873 44.2 13.6ZM 43.3502 15.3C 42.881 15.3 42.5002 14.9192 42.5002 14.45L 42.5002 13.6C 42.5002 11.7249 40.9753 10.2 39.1002 10.2L 35.7002 10.2C 33.8251 10.2 32.3002 11.7249 32.3002 13.6L 32.3002 14.45C 32.3002 14.9192 31.9194 15.3 31.4502 15.3L 31.4502 17C 31.9194 17 32.3002 17.3808 32.3002 17.85C 32.3002 19.3205 33.0533 20.8556 33.0609 20.8709C 33.9458 22.6398 34.7261 23.8 37.4002 23.8C 40.0743 23.8 40.8546 22.6398 41.7394 20.8701C 41.7471 20.8556 42.5002 19.3205 42.5002 17.85C 42.5002 17.3808 42.881 17 43.3502 17L 43.3502 15.3ZM 39.95 15.3L 39.1 15.3C 38.6308 15.3 38.25 15.6808 38.25 16.15C 38.25 16.6192 38.6308 17 39.1 17L 39.95 17C 40.4192 17 40.8 16.6192 40.8 16.15C 40.8 15.6808 40.4192 15.3 39.95 15.3ZM 35.7 15.3L 34.85 15.3C 34.3808 15.3 34 15.6808 34 16.15C 34 16.6192 34.3808 17 34.85 17L 35.7 17C 36.1692 17 36.55 16.6192 36.55 16.15C 36.55 15.6808 36.1692 15.3 35.7 15.3ZM 45.0502 37.4C 44.581 37.4 44.2002 37.7808 44.2002 38.25L 44.2002 50.15C 44.2002 50.6192 44.581 51 45.0502 51C 45.5194 51 45.9002 50.6192 45.9002 50.15L 45.9002 38.25C 45.9002 37.7808 45.5194 37.4 45.0502 37.4ZM 25.5002 37.4L 5.9502 37.4C 4.4967 37.4 3.4002 36.3035 3.4002 34.85L 3.4002 9.35C 3.4002 8.8808 3.0194 8.5 2.5502 8.5C 2.081 8.5 1.7002 8.8808 1.7002 9.35L 1.7002 34.85C 1.7002 37.2334 3.5668 39.1 5.9502 39.1L 25.5002 39.1C 25.9694 39.1 26.3502 38.7192 26.3502 38.25C 26.3502 37.7808 25.9694 37.4 25.5002 37.4Z"/>
</defs>
</svg>
