<svg width="51" height="51" viewBox="0 0 51 51" version="1.1" xmlns="http://www.w3.org/2000/svg" xmlns:xlink="http://www.w3.org/1999/xlink">
<title>scientist</title>
<desc>Created using Figma</desc>
<g id="Canvas" transform="translate(-10605 -501)">
<g id="scientist">
<use xlink:href="#path0_fill" transform="translate(10605 501)" fill="#F4511E"/>
</g>
</g>
<defs>
<path id="path0_fill" fill-rule="evenodd" d="M 31.4498 22.1001C 31.4498 21.1625 30.6873 20.4001 29.7498 20.4001C 28.8123 20.4001 28.0498 21.1625 28.0498 22.1001C 28.0498 23.0376 28.8123 23.8001 29.7498 23.8001C 30.6873 23.8001 31.4498 23.0376 31.4498 22.1001ZM 22.9498 22.1001C 22.9498 21.1625 22.1873 20.4001 21.2498 20.4001C 20.3123 20.4001 19.5498 21.1625 19.5498 22.1001C 19.5498 23.0376 20.3123 23.8001 21.2498 23.8001C 22.1873 23.8001 22.9498 23.0376 22.9498 22.1001ZM 29.7496 25.5001C 27.9307 25.5001 26.4542 24.061 26.3667 22.2633C 26.3658 22.2624 26.365 22.2607 26.365 22.259C 26.2987 22.2148 26.0743 22.1001 25.4997 22.1001C 24.9251 22.1001 24.7007 22.2148 24.6344 22.259C 24.6344 22.2607 24.6335 22.2624 24.6327 22.2633C 24.5451 24.061 23.0687 25.5001 21.2497 25.5001C 19.542 25.5001 18.1378 24.2302 17.899 22.588L 15.6779 21.1073C 15.2878 20.8472 15.1824 20.3193 15.4425 19.9283C 15.7026 19.5382 16.2304 19.4311 16.6214 19.6929L 18.1523 20.7137C 18.6844 19.5297 19.8693 18.7001 21.2497 18.7001C 22.5723 18.7001 23.7087 19.4668 24.2706 20.5718C 24.5953 20.4672 24.9956 20.4001 25.4997 20.4001C 26.0037 20.4001 26.4041 20.4672 26.7288 20.5718C 27.2906 19.4668 28.4271 18.7001 29.7496 18.7001C 31.13 18.7001 32.3149 19.5297 32.847 20.7137L 34.3779 19.6929C 34.7689 19.4311 35.2959 19.5382 35.5568 19.9283C 35.8169 20.3193 35.7115 20.8472 35.3214 21.1073L 33.1003 22.588C 32.8615 24.2302 31.4573 25.5001 29.7496 25.5001ZM 25.5251 49.3L 25.5166 49.3C 25.0474 49.3 24.6709 49.6808 24.6709 50.15C 24.6709 50.6192 25.0559 51 25.5251 51C 25.9952 51 26.3751 50.6192 26.3751 50.15C 26.3751 49.6808 25.9952 49.3 25.5251 49.3ZM 25.5251 45.9L 25.5166 45.9C 25.0474 45.9 24.6709 46.2808 24.6709 46.75C 24.6709 47.2192 25.0559 47.6 25.5251 47.6C 25.9952 47.6 26.3751 47.2192 26.3751 46.75C 26.3751 46.2808 25.9952 45.9 25.5251 45.9ZM 25.5251 42.5L 25.5166 42.5C 25.0474 42.5 24.6709 42.8808 24.6709 43.35C 24.6709 43.8192 25.0559 44.2 25.5251 44.2C 25.9952 44.2 26.3751 43.8192 26.3751 43.35C 26.3751 42.8808 25.9952 42.5 25.5251 42.5ZM 18.7 40.8C 4.71502 40.8 1.87688 43.5302 0.875584 46.5435L 0.0255866 49.9435C -0.088313 50.3991 0.188786 50.8606 0.643534 50.9745C 0.713234 50.9924 0.782084 51 0.850934 51C 1.23173 51 1.57768 50.7425 1.67458 50.3566L 2.50673 47.0186C 3.23773 44.8248 5.66702 42.5833 18.0039 42.5017L 19.567 50.3166C 19.658 50.7765 20.1059 51.0748 20.5666 50.983C 21.0273 50.8912 21.3257 50.4433 21.233 49.9834L 19.533 41.4834C 19.454 41.0856 19.1055 40.8 18.7 40.8ZM 50.9743 49.9435L 50.1064 46.4814C 49.3976 44.3556 46.1234 40.7856 32.2973 40.8357C 31.8936 40.8366 31.5459 41.1213 31.4669 41.5183L 29.7669 49.9825C 29.6742 50.4432 29.9726 50.8912 30.4324 50.983C 30.8914 51.0731 31.3411 50.7773 31.4329 50.3174L 32.996 42.5366C 43.3269 42.6037 47.7792 44.8758 48.4753 46.9566L 49.3253 50.3565C 49.4222 50.7424 49.7682 51 50.1489 51C 50.2178 51 50.2866 50.9923 50.3563 50.9745C 50.8111 50.8606 51.0882 50.399 50.9743 49.9435ZM 30.6004 30.6001C 30.6004 30.1309 30.2196 29.7501 29.7504 29.7501C 29.73 29.7501 27.639 29.7254 26.2076 27.5783C 25.8922 27.1057 25.1085 27.1057 24.7932 27.5783C 23.389 29.6846 21.3481 29.7484 21.2453 29.7501C 20.7778 29.7526 20.4004 30.1326 20.4004 30.6001C 20.4004 31.0693 20.7812 31.4501 21.2504 31.4501C 21.3583 31.4501 23.6397 31.4237 25.5004 29.4203C 27.361 31.4237 29.6424 31.4501 29.7504 31.4501C 30.2196 31.4501 30.6004 31.0693 30.6004 30.6001ZM 24.6498 32.3C 24.1806 32.3 23.7998 32.6808 23.7998 33.15C 23.7998 33.6192 24.1806 34 24.6498 34L 26.3498 34C 26.819 34 27.1998 33.6192 27.1998 33.15C 27.1998 32.6808 26.819 32.3 26.3498 32.3L 24.6498 32.3ZM 5.95631 7.54814C 6.00136 7.17329 6.28781 6.87324 6.66011 6.81204C 10.208 6.22044 12.6237 6.80524 13.8876 7.29229C 14.0109 6.46439 14.0704 4.98455 13.6173 2.71675C 13.5493 2.3793 13.6913 2.03506 13.9769 1.84381C 14.2642 1.65256 14.6365 1.65256 14.9221 1.84296C 16.7598 3.0678 18.5686 4.69385 19.5027 5.57359C 20.2584 4.6573 21.581 2.823 22.1258 0.64361C 22.2074 0.318061 22.4735 0.0698614 22.805 0.0129116C 23.1364 -0.0457382 23.4705 0.0987613 23.6575 0.37841C 24.6163 1.81746 25.3116 3.48855 25.751 4.7372C 26.8382 3.29985 28.8722 1.41711 32.3003 0.861209C 32.6471 0.806809 32.9845 0.964059 33.1639 1.25986C 33.3432 1.55736 33.3245 1.93221 33.1163 2.21015C 31.86 3.8855 31.5132 5.55234 31.4571 6.71684C 32.8587 5.58634 35.2489 3.9841 38.0836 3.41715C 38.4041 3.35255 38.7288 3.47665 38.926 3.7342C 39.1223 3.99175 39.1555 4.3394 39.011 4.6301C 38.2154 6.21959 37.8134 7.61529 37.6094 8.61318C 39.1011 7.82864 41.4241 6.80014 43.3502 6.80014C 43.6766 6.80014 43.975 6.98714 44.1161 7.28209C 44.258 7.57619 44.2181 7.92639 44.0141 8.18139C 40.8368 12.1526 40.8002 16.111 40.8002 16.1501C 40.8002 16.6193 40.4194 17.0001 39.9502 17.0001C 39.481 17.0001 39.1002 16.6193 39.1002 16.1501C 39.1002 15.9886 39.1308 12.6167 41.4845 8.81973C 39.685 9.35608 37.7751 10.4228 37.0101 10.915C 36.7475 11.0833 36.4151 11.0952 36.1431 10.9464C 35.8703 10.7977 35.7003 10.5112 35.7003 10.2001C 35.7003 10.1066 35.7147 8.23494 36.739 5.57019C 33.639 6.74149 31.3755 9.06198 31.3491 9.08918C 31.1349 9.31188 30.8179 9.39943 30.517 9.32123C 30.2186 9.24133 29.9866 9.00588 29.9118 8.70668C 29.8795 8.57833 29.2726 6.03599 30.63 3.0763C 27.4247 4.36915 26.3027 7.08319 26.2899 7.11634C 26.1522 7.45804 25.8139 7.66969 25.4433 7.64844C 25.0753 7.62294 24.7659 7.36454 24.6758 7.00669C 24.669 6.98034 24.1496 4.93865 23.1441 2.90205C 22.0136 5.51834 20.2422 7.31014 20.1513 7.40109C 19.8189 7.73344 19.2817 7.73344 18.9494 7.40109C 18.9298 7.38239 17.4185 5.87704 15.5978 4.4414C 15.8936 7.39174 15.2935 8.71433 15.2111 8.88008C 15.1014 9.09853 14.9042 9.25918 14.6688 9.32123C 14.4325 9.38413 14.1817 9.34248 13.9786 9.20733C 13.965 9.19798 12.4707 8.26469 9.5348 8.26469L 9.51694 8.26469C 13.8825 11.5916 15.217 17.3826 15.2799 17.6657C 15.336 17.9173 15.2748 18.1808 15.1133 18.3814C 14.9518 18.5828 14.7079 18.7001 14.4503 18.7001C 13.7661 18.7001 13.6105 19.1676 13.6003 19.5603L 13.6003 22.9501C 13.6003 23.4184 13.982 23.8001 14.4503 23.8001C 14.8736 23.8001 15.2315 24.1112 15.2918 24.5294C 15.3003 24.5872 16.135 30.3196 17.7075 32.6783C 17.8206 32.8483 17.9387 33.0379 18.0654 33.2436C 19.0879 34.8985 20.6332 37.4 25.5003 37.4C 30.3674 37.4 31.9127 34.8985 32.9352 33.2436C 33.0619 33.0379 33.18 32.8483 33.2931 32.6783C 34.8681 30.3162 35.7003 24.5872 35.7088 24.5294C 35.7691 24.1112 36.127 23.8001 36.5503 23.8001C 37.0186 23.8001 37.4003 23.4184 37.4003 22.9501L 37.4003 19.5501C 37.3901 19.1676 37.2345 18.7001 36.5503 18.7001C 36.0811 18.7001 35.7003 18.3193 35.7003 17.8501C 35.7003 17.8306 35.6697 15.6214 34.2493 14.2011C 33.6484 13.6001 30.5816 13.6001 25.5003 13.6001C 19.807 13.6001 17.291 14.3991 17.2664 14.4076C 16.8227 14.553 16.3416 14.3107 16.1945 13.8653C 16.0475 13.4216 16.2872 12.9422 16.7317 12.7935C 16.8414 12.7569 19.4815 11.9001 25.5003 11.9001C 31.9424 11.9001 34.3522 11.9001 35.4512 12.9992C 36.7959 14.3439 37.2124 16.1153 37.3425 17.1047C 38.6166 17.4642 39.1002 18.6848 39.1002 19.5501L 39.1002 22.9501C 39.1002 24.0976 38.3386 25.0708 37.294 25.3896C 37.0212 27.0199 36.1771 31.4169 34.7075 33.6218C 34.6046 33.7757 34.4975 33.9499 34.3819 34.1369C 33.3101 35.8717 31.3151 39.1 25.5003 39.1C 19.6855 39.1 17.6905 35.8717 16.6187 34.1369C 16.5031 33.9499 16.396 33.7757 16.2931 33.6218C 14.8235 31.4169 13.9794 27.0199 13.7066 25.3896C 12.6619 25.0708 11.9003 24.0976 11.9003 22.9501L 11.9003 19.5501C 11.9003 18.7503 12.3143 17.6461 13.3844 17.199C 12.7622 15.2236 10.8149 10.2953 6.46546 8.43128C 6.11866 8.28254 5.91126 7.92299 5.95631 7.54814Z"/>
</defs>
</svg>
